<?xml version="1.0" encoding="utf-8"?>
<!-- Generator: Adobe Illustrator 16.0.0, SVG Export Plug-In . SVG Version: 6.00 Build 0)  -->
<!DOCTYPE svg PUBLIC "-//W3C//DTD SVG 1.1//EN" "http://www.w3.org/Graphics/SVG/1.1/DTD/svg11.dtd">
<svg version="1.1" id="Layer_1" xmlns="http://www.w3.org/2000/svg" xmlns:xlink="http://www.w3.org/1999/xlink" x="0px" y="0px"
	 width="30px" height="30px" viewBox="0 0 30 30" enable-background="new 0 0 30 30" xml:space="preserve">
<g>
	<path fill="#8012DD" d="M23.251,22.928H9.875V11.084h0.5c2.206,0,4-1.794,4-4c-0.002-0.043-0.058-1.572,0.892-2.564
		c0.516-0.538,1.211-0.811,2.067-0.811c0.858,0,1.546,0.275,2.043,0.816c0.916,0.999,0.794,2.537,0.788,2.602l0.002,3.082
		c-0.018,0.206-0.005,0.663,0.23,0.922c0.143,0.157,0.36,0.234,0.665,0.234h4.094h0.001c0.74,0,1.952,0.412,1.952,1.953
		c0,1.584-3.341,8.539-3.722,9.327L23.251,22.928z"/>
</g>
<g>
	<polygon fill="#8012DD" points="8.313,21.928 8.313,22.928 4.813,22.928 4.813,11.105 8.313,11.105 8.313,12.105 	"/>
</g>
</svg>
