<?xml version="1.0" encoding="utf-8"?>
<!-- Generator: Adobe Illustrator 16.0.0, SVG Export Plug-In . SVG Version: 6.00 Build 0)  -->
<!DOCTYPE svg PUBLIC "-//W3C//DTD SVG 1.1//EN" "http://www.w3.org/Graphics/SVG/1.1/DTD/svg11.dtd">
<svg version="1.1" id="Layer_1" xmlns="http://www.w3.org/2000/svg" xmlns:xlink="http://www.w3.org/1999/xlink" x="0px" y="0px"
	 width="40px" height="40px" viewBox="0 0 40 40" enable-background="new 0 0 40 40" xml:space="preserve">
<g>
	<path fill="#8012DD" d="M20.651,30.217c-6.679,0-12.112-5.434-12.112-12.113c0-6.678,5.433-12.111,12.112-12.111
		c6.678,0,12.111,5.433,12.111,12.111C32.762,24.783,27.329,30.217,20.651,30.217z M20.651,6.993
		c-6.127,0-11.112,4.984-11.112,11.111c0,6.127,4.985,11.113,11.112,11.113c6.126,0,11.111-4.985,11.111-11.113
		C31.762,11.977,26.777,6.993,20.651,6.993z"/>
</g>
<g>
	<path fill="#8012DD" d="M20.651,32.146c-7.743,0-14.042-6.3-14.042-14.042h1c0,7.192,5.851,13.042,13.042,13.042
		c7.191,0,13.041-5.851,13.041-13.042h1C34.691,25.847,28.393,32.146,20.651,32.146z"/>
</g>
<g>
	
		<rect x="17.592" y="4.547" transform="matrix(0.7071 0.7071 -0.7071 0.7071 16.3082 -8.2329)" fill="#8012DD" width="1" height="22.044"/>
</g>
<g>
	
		<rect x="19.153" y="5.588" transform="matrix(0.7071 0.7071 -0.7071 0.7071 17.8689 -8.8796)" fill="#8012DD" width="1" height="23.084"/>
</g>
<g>
	
		<rect x="24.458" y="12.54" transform="matrix(0.7071 0.7071 -0.7071 0.7071 23.1736 -11.0769)" fill="#8012DD" width="1" height="19.788"/>
</g>
<g>
	
		<rect x="26.226" y="16.373" transform="matrix(0.7071 0.7071 -0.7071 0.7071 24.9412 -11.8092)" fill="#8012DD" width="1" height="15.659"/>
</g>
<g>
	<rect x="20.151" y="31.646" fill="#8012DD" width="1" height="3.527"/>
</g>
<g>
	<rect x="9.823" y="34.674" fill="#8012DD" width="21.655" height="1"/>
</g>
</svg>
