<?xml version="1.0" encoding="utf-8"?>
<!-- Generator: Adobe Illustrator 16.0.0, SVG Export Plug-In . SVG Version: 6.00 Build 0)  -->
<!DOCTYPE svg PUBLIC "-//W3C//DTD SVG 1.1//EN" "http://www.w3.org/Graphics/SVG/1.1/DTD/svg11.dtd">
<svg version="1.1" id="Layer_1" xmlns="http://www.w3.org/2000/svg" xmlns:xlink="http://www.w3.org/1999/xlink" x="0px" y="0px"
	 width="40px" height="40px" viewBox="0 0 40 40" enable-background="new 0 0 40 40" xml:space="preserve">
<g>
	<path fill="#8E22BF" d="M26.717,33.5H12.408c-3.499,0-6.345-2.847-6.345-6.345v-14.31c0-3.499,2.847-6.345,6.345-6.345h14.309
		c3.499,0,6.346,2.847,6.346,6.345v14.31C33.063,30.653,30.216,33.5,26.717,33.5z M12.408,8.5c-2.396,0-4.345,1.949-4.345,4.345
		v14.31c0,2.396,1.949,4.345,4.345,4.345h14.309c2.396,0,4.346-1.949,4.346-4.345v-14.31c0-2.396-1.949-4.345-4.346-4.345H12.408z"
		/>
</g>
<g>
	<path fill="#8E22BF" d="M19.563,27.667c-4.228,0-7.667-3.439-7.667-7.667s3.439-7.667,7.667-7.667s7.667,3.439,7.667,7.667
		S23.79,27.667,19.563,27.667z M19.563,14.333c-3.125,0-5.667,2.542-5.667,5.667s2.542,5.667,5.667,5.667s5.667-2.542,5.667-5.667
		S22.688,14.333,19.563,14.333z"/>
</g>
</svg>
