<?xml version="1.0" encoding="utf-8"?>
<!-- Generator: Adobe Illustrator 16.0.0, SVG Export Plug-In . SVG Version: 6.00 Build 0)  -->
<!DOCTYPE svg PUBLIC "-//W3C//DTD SVG 1.1//EN" "http://www.w3.org/Graphics/SVG/1.1/DTD/svg11.dtd">
<svg version="1.1" id="Layer_1" xmlns="http://www.w3.org/2000/svg" xmlns:xlink="http://www.w3.org/1999/xlink" x="0px" y="0px"
	 width="40px" height="40px" viewBox="0 0 40 40" enable-background="new 0 0 40 40" xml:space="preserve">
<rect fill-rule="evenodd" clip-rule="evenodd" fill="#1877F2" width="40" height="40"/>
<path fill-rule="evenodd" clip-rule="evenodd" fill="#FFFFFF" d="M21.832,16.873c1.341,0,2.679,0,4.049,0
	c-0.02,0.197-0.033,0.375-0.057,0.551c-0.147,1.141-0.302,2.281-0.442,3.422c-0.02,0.157-0.072,0.189-0.218,0.188
	c-1.047-0.006-2.093,0.001-3.139-0.007c-0.171-0.001-0.215,0.048-0.215,0.217c0.005,3.32,0.003,6.641,0.003,9.962
	c0,0.059-0.007,0.118,0.002,0.176c0.025,0.178-0.06,0.217-0.222,0.216c-0.67-0.008-1.34-0.003-2.01-0.003c-0.6,0-1.199,0-1.799,0
	c-0.262,0-0.262,0-0.262-0.256c0-3.361,0-6.724,0-10.086c0-0.063,0-0.127,0-0.209c-0.086-0.005-0.16-0.013-0.234-0.013
	c-1.041-0.001-2.081-0.004-3.121,0.003c-0.167,0.002-0.206-0.054-0.206-0.211c0.005-1.246,0.005-2.492,0-3.737
	c0-0.158,0.04-0.212,0.207-0.211c1.046,0.007,2.092,0.004,3.139,0.004c0.063,0,0.126,0,0.214,0c0-0.08,0-0.142,0-0.204
	c0-0.964-0.002-1.928,0.001-2.892c0.003-0.945,0.16-1.861,0.581-2.714c0.71-1.44,1.899-2.241,3.45-2.545
	c0.874-0.172,1.756-0.118,2.636-0.086c0.563,0.021,1.124,0.08,1.687,0.115c0.123,0.008,0.16,0.059,0.16,0.175
	c-0.003,1.134-0.004,2.269,0,3.403c0.001,0.154-0.076,0.164-0.198,0.164c-0.793,0.002-1.587,0.002-2.379,0.022
	c-0.22,0.006-0.443,0.056-0.654,0.123c-0.631,0.199-0.928,0.683-0.952,1.303c-0.042,1.015-0.028,2.032-0.038,3.048
	C21.815,16.813,21.823,16.835,21.832,16.873z"/>
</svg>
