<?xml version="1.0" encoding="utf-8"?>
<!-- Generator: Adobe Illustrator 16.0.0, SVG Export Plug-In . SVG Version: 6.00 Build 0)  -->
<!DOCTYPE svg PUBLIC "-//W3C//DTD SVG 1.1//EN" "http://www.w3.org/Graphics/SVG/1.1/DTD/svg11.dtd">
<svg version="1.1" id="Layer_1" xmlns="http://www.w3.org/2000/svg" xmlns:xlink="http://www.w3.org/1999/xlink" x="0px" y="0px"
	 width="40px" height="40px" viewBox="0 0 40 40" enable-background="new 0 0 40 40" xml:space="preserve">
<polygon fill-rule="evenodd" clip-rule="evenodd" fill="#34A853" points="0,40 20,20 40,40 "/>
<polygon fill-rule="evenodd" clip-rule="evenodd" fill="#EA4335" points="40,0 20,20 0,0 "/>
<polygon fill-rule="evenodd" clip-rule="evenodd" fill="#FBBC05" points="0,0 20,20 0,40 "/>
<polygon fill-rule="evenodd" clip-rule="evenodd" fill="#4285F4" points="40,40 20,20 40,0 "/>
<g>
	<path fill-rule="evenodd" clip-rule="evenodd" fill="#FFFFFF" d="M27.536,22.735c-2.233,0-4.454,0-6.681,0c0-1.222,0-2.424,0-3.637
		c3.684,0,7.361,0,11.05,0c-0.062,0.657-0.123,1.307-0.18,1.957c-0.076,0.858-0.243,1.698-0.503,2.52
		c-0.438,1.382-1.108,2.639-2.009,3.771c-1.371,1.725-3.09,2.975-5.148,3.754c-0.864,0.327-1.759,0.538-2.677,0.653
		c-1.204,0.15-2.4,0.114-3.59-0.104c-1.494-0.274-2.883-0.821-4.167-1.634c-1.323-0.837-2.439-1.893-3.345-3.167
		c-0.911-1.281-1.546-2.688-1.897-4.224c-0.209-0.921-0.304-1.852-0.294-2.793c0.011-0.979,0.146-1.943,0.401-2.889
		c0.469-1.737,1.294-3.288,2.465-4.652c0.934-1.086,2.031-1.974,3.286-2.668c1.315-0.728,2.719-1.19,4.208-1.374
		c1.948-0.239,3.847-0.021,5.687,0.68c1.426,0.543,2.699,1.331,3.821,2.363c0.019,0.017,0.049,0.023,0.078,0.036
		c-0.852,0.91-1.677,1.791-2.488,2.657c-0.386-0.289-0.748-0.588-1.138-0.846c-1.26-0.832-2.649-1.271-4.16-1.328
		c-1.623-0.061-3.138,0.313-4.531,1.146c-1.512,0.905-2.622,2.173-3.32,3.792c-0.598,1.386-0.803,2.835-0.589,4.329
		c0.393,2.74,1.813,4.787,4.225,6.14c0.917,0.514,1.907,0.809,2.95,0.924c2.112,0.232,4.029-0.271,5.729-1.548
		c1.298-0.976,2.209-2.249,2.785-3.765C27.514,22.806,27.521,22.781,27.536,22.735z"/>
</g>
</svg>
