<?xml version="1.0" encoding="utf-8"?>
<!-- Generator: Adobe Illustrator 16.0.0, SVG Export Plug-In . SVG Version: 6.00 Build 0)  -->
<!DOCTYPE svg PUBLIC "-//W3C//DTD SVG 1.1//EN" "http://www.w3.org/Graphics/SVG/1.1/DTD/svg11.dtd">
<svg version="1.1" id="Layer_1" xmlns="http://www.w3.org/2000/svg" xmlns:xlink="http://www.w3.org/1999/xlink" x="0px" y="0px"
	 width="40px" height="40px" viewBox="0 0 40 40" enable-background="new 0 0 40 40" xml:space="preserve">
<rect fill-rule="evenodd" clip-rule="evenodd" fill="#FFEC00" width="40" height="40"/>
<g>
	<g>
		<path fill-rule="evenodd" clip-rule="evenodd" fill="#3B1E1E" d="M19.905,9.613c2.235,0.01,4.289,0.446,6.211,1.423
			c1.577,0.802,2.912,1.895,3.896,3.381c0.649,0.981,1.074,2.057,1.203,3.232c0.224,2.021-0.337,3.829-1.565,5.434
			c-0.888,1.163-2.009,2.052-3.291,2.747c-1.2,0.652-2.479,1.084-3.818,1.326c-1.263,0.228-2.539,0.305-3.82,0.157
			c-0.182-0.021-0.364-0.054-0.545-0.048c-0.136,0.006-0.293,0.031-0.402,0.104c-1.095,0.729-2.182,1.467-3.272,2.203
			c-0.356,0.241-0.717,0.477-1.069,0.724c-0.135,0.097-0.269,0.13-0.402,0.03c-0.13-0.099-0.17-0.228-0.121-0.405
			c0.34-1.235,0.665-2.475,1.003-3.711c0.045-0.166,0.004-0.245-0.144-0.321c-1.235-0.638-2.313-1.478-3.206-2.547
			c-0.962-1.153-1.591-2.466-1.771-3.961c-0.229-1.911,0.255-3.653,1.378-5.21c1.475-2.045,3.507-3.274,5.889-3.987
			C17.342,9.799,18.653,9.622,19.905,9.613z"/>
	</g>
</g>
</svg>
