<?xml version="1.0" encoding="utf-8"?>
<!-- Generator: Adobe Illustrator 16.0.0, SVG Export Plug-In . SVG Version: 6.00 Build 0)  -->
<!DOCTYPE svg PUBLIC "-//W3C//DTD SVG 1.1//EN" "http://www.w3.org/Graphics/SVG/1.1/DTD/svg11.dtd">
<svg version="1.1" id="Layer_1" xmlns="http://www.w3.org/2000/svg" xmlns:xlink="http://www.w3.org/1999/xlink" x="0px" y="0px"
	 width="40px" height="40px" viewBox="0 0 40 40" enable-background="new 0 0 40 40" xml:space="preserve">
<rect fill-rule="evenodd" clip-rule="evenodd" fill="#00C73C" width="40" height="40"/>
<path fill-rule="evenodd" clip-rule="evenodd" fill="#FFFFFF" d="M16.665,19.894c0,1.01,0.001,2.02,0,3.03
	c0,1.508-0.009,3.017-0.001,4.524c0.003,0.637-0.134,1.095-0.917,1.085c-1.632-0.02-3.266-0.007-4.996-0.007
	c0-5.669,0-11.251,0-17.021c1.931,0,3.895-0.037,5.854,0.038c0.314,0.012,0.673,0.48,0.904,0.813
	c1.573,2.264,3.115,4.549,4.672,6.825c0.236,0.345,0.496,0.674,1.047,0.979c0.039-0.422,0.107-0.844,0.11-1.267
	c0.012-2.068,0.031-4.137-0.006-6.206c-0.016-0.864,0.246-1.253,1.176-1.218c1.545,0.059,3.095,0.017,4.742,0.017
	c0,5.657,0,11.238,0,17.028c-1.928,0-3.89,0.036-5.846-0.037c-0.314-0.013-0.675-0.476-0.904-0.806
	c-1.573-2.265-3.115-4.55-4.671-6.825c-0.236-0.346-0.494-0.678-0.743-1.017C16.945,19.851,16.806,19.872,16.665,19.894z"/>
</svg>
