<?xml version="1.0" encoding="utf-8"?>
<!-- Generator: Adobe Illustrator 16.0.0, SVG Export Plug-In . SVG Version: 6.00 Build 0)  -->
<!DOCTYPE svg PUBLIC "-//W3C//DTD SVG 1.1//EN" "http://www.w3.org/Graphics/SVG/1.1/DTD/svg11.dtd">
<svg version="1.1" id="Layer_1" xmlns="http://www.w3.org/2000/svg" xmlns:xlink="http://www.w3.org/1999/xlink" x="0px" y="0px"
	 width="40px" height="40px" viewBox="0 0 40 40" enable-background="new 0 0 40 40" xml:space="preserve">
<rect fill-rule="evenodd" clip-rule="evenodd" fill="#65B6F5" width="40" height="40"/>
<g>
	<path fill-rule="evenodd" clip-rule="evenodd" fill="#FFFFFF" d="M8.303,27.424c2.588,0.213,4.939-0.386,7.03-2.01
		c-2.198-0.18-3.671-1.284-4.495-3.358c0.746,0.105,1.438,0.099,2.14-0.089c-2.705-0.605-3.916-3.143-3.787-4.757
		c0.34,0.132,0.67,0.288,1.018,0.388c0.34,0.098,0.697,0.137,1.062,0.172c-0.996-0.765-1.677-1.724-1.945-2.946
		c-0.267-1.215-0.091-2.368,0.531-3.47c2.611,3.062,5.896,4.758,9.923,5.036c-0.028-0.312-0.065-0.602-0.08-0.892
		c-0.084-1.634,0.526-2.979,1.797-3.98c1.619-1.278,3.404-1.396,5.242-0.509c0.42,0.201,0.771,0.547,1.143,0.84
		c0.104,0.082,0.182,0.122,0.322,0.092c0.947-0.206,1.844-0.544,2.688-1.022c0.045-0.025,0.092-0.045,0.182-0.087
		c-0.369,1.132-1.051,1.969-2.008,2.602c0.914-0.079,1.771-0.338,2.633-0.646c-0.178,0.232-0.344,0.473-0.531,0.696
		c-0.506,0.604-1.066,1.149-1.699,1.618c-0.109,0.081-0.148,0.17-0.145,0.308c0.068,2.162-0.354,4.232-1.266,6.188
		c-1.027,2.197-2.49,4.059-4.449,5.503c-1.404,1.035-2.988,1.694-4.681,2.092c-1.753,0.411-3.524,0.478-5.304,0.228
		C11.708,29.15,9.933,28.489,8.303,27.424z"/>
</g>
</svg>
