<?xml version="1.0" encoding="utf-8"?>
<!-- Generator: Adobe Illustrator 16.0.0, SVG Export Plug-In . SVG Version: 6.00 Build 0)  -->
<!DOCTYPE svg PUBLIC "-//W3C//DTD SVG 1.1//EN" "http://www.w3.org/Graphics/SVG/1.1/DTD/svg11.dtd">
<svg version="1.1" id="Layer_1" xmlns="http://www.w3.org/2000/svg" xmlns:xlink="http://www.w3.org/1999/xlink" x="0px" y="0px"
	 width="347px" height="136.089px" viewBox="0 0 347 136.089" enable-background="new 0 0 347 136.089" xml:space="preserve">
<g>
	<path fill="#FFFFFF" d="M19.715,7.456c2.828,0,4.908,0.698,6.244,2.094c1.334,1.396,2.001,3.411,2.001,6.046v2.712
		c0,1.316-0.15,2.48-0.448,3.49c-0.298,1.01-0.778,1.857-1.436,2.542c-0.659,0.685-1.506,1.208-2.542,1.567
		c-1.035,0.36-2.291,0.54-3.767,0.54h-6.665V7.456H19.715z M16.449,23.604h2.818c0.843,0,1.594-0.097,2.253-0.29
		c0.658-0.192,1.211-0.5,1.659-0.922c0.449-0.421,0.791-0.978,1.028-1.672c0.237-0.693,0.356-1.541,0.356-2.542v-2.45
		c0-2.002-0.444-3.406-1.331-4.215c-0.887-0.808-2.209-1.211-3.965-1.211h-2.818V23.604z"/>
	<path fill="#FFFFFF" d="M40.432,17.94h-7.876v8.509h-3.372V7.456h3.372v7.692h7.876V7.456h3.373v18.993h-3.373V17.94z"/>
	<path fill="#FFFFFF" d="M55.602,7.456h7.376c3.985,0,5.98,1.545,5.98,4.636v0.553c0,0.421-0.049,0.831-0.146,1.225
		c-0.097,0.395-0.263,0.763-0.5,1.106c-0.237,0.343-0.549,0.641-0.936,0.896c-0.386,0.255-0.861,0.453-1.422,0.594
		c1.158,0.175,2.094,0.609,2.805,1.304c0.71,0.695,1.066,1.699,1.066,3.016v0.658c0,1.563-0.492,2.788-1.476,3.675
		c-0.983,0.887-2.502,1.331-4.558,1.331H55.6V7.456H55.602z M58.948,10.248v4.953h2.476c0.65,0,1.234-0.017,1.752-0.053
		c0.518-0.035,0.948-0.132,1.29-0.289c0.342-0.157,0.606-0.398,0.79-0.724c0.184-0.325,0.277-0.786,0.277-1.384v-0.474
		c0-0.808-0.312-1.348-0.935-1.62c-0.624-0.271-1.647-0.408-3.069-0.408h-2.582V10.248z M58.948,23.655h3.056
		c0.737,0,1.382-0.03,1.936-0.091c0.553-0.061,1.01-0.184,1.37-0.368c0.36-0.184,0.627-0.444,0.804-0.778
		c0.176-0.333,0.263-0.781,0.263-1.343v-0.581c0-0.491-0.083-0.899-0.25-1.225c-0.167-0.326-0.444-0.589-0.83-0.79
		c-0.386-0.202-0.89-0.343-1.515-0.421c-0.624-0.08-1.383-0.119-2.279-0.119h-2.556v5.715H58.948z"/>
	<path fill="#FFFFFF" d="M84.694,25.105c-0.703,0.474-1.528,0.852-2.476,1.133c-0.949,0.279-2.107,0.421-3.478,0.421
		c-0.843,0-1.659-0.11-2.45-0.33c-0.79-0.22-1.497-0.588-2.12-1.105c-0.624-0.517-1.125-1.211-1.502-2.082
		c-0.377-0.87-0.565-1.953-0.565-3.253v-1.501c0-1.177,0.17-2.191,0.514-3.042c0.342-0.852,0.813-1.555,1.409-2.108
		c0.596-0.554,1.295-0.962,2.094-1.225c0.798-0.263,1.664-0.395,2.595-0.395c0.913,0,1.76,0.132,2.542,0.395
		c0.781,0.263,1.452,0.663,2.015,1.198c0.562,0.536,1,1.203,1.316,2.002c0.315,0.799,0.474,1.726,0.474,2.778v2.397h-9.721
		c0,1.159,0.307,2.032,0.922,2.621c0.615,0.589,1.502,0.883,2.662,0.883c0.86,0,1.624-0.093,2.292-0.276
		c0.668-0.183,1.37-0.487,2.108-0.91L84.694,25.105z M81.876,17.888v-0.633c0-0.386-0.057-0.754-0.171-1.105
		c-0.114-0.352-0.303-0.659-0.566-0.923c-0.263-0.263-0.597-0.474-1-0.631s-0.896-0.237-1.476-0.237
		c-1.107,0-1.937,0.289-2.489,0.87c-0.554,0.58-0.831,1.282-0.831,2.108v0.553h6.533V17.888z"/>
	<path fill="#FFFFFF" d="M91.602,26.66c-1.564,0-2.775-0.356-3.635-1.067c-0.862-0.71-1.291-1.708-1.291-2.989V21.76
		c0-0.597,0.092-1.146,0.276-1.646c0.185-0.501,0.492-0.935,0.922-1.305c0.43-0.368,0.996-0.657,1.699-0.869
		c0.703-0.211,1.564-0.316,2.583-0.316h3.319v-0.553c0-0.896-0.208-1.541-0.619-1.938c-0.414-0.395-1.068-0.593-1.963-0.593
		c-1.511,0-2.881,0.484-4.11,1.45l-1.633-2.424c0.737-0.509,1.572-0.961,2.503-1.357c0.931-0.395,2.019-0.592,3.266-0.592
		c0.843,0,1.624,0.105,2.345,0.315c0.721,0.21,1.34,0.513,1.857,0.909c0.519,0.396,0.923,0.878,1.212,1.45
		c0.289,0.571,0.435,1.225,0.435,1.962v10.194h-2.977l-0.053-1.792c-0.141,0.316-0.365,0.603-0.672,0.857
		c-0.308,0.254-0.655,0.466-1.042,0.631c-0.386,0.166-0.79,0.293-1.211,0.383C92.391,26.615,91.987,26.66,91.602,26.66z
		 M95.473,20.206h-3.239c-0.88,0-1.489,0.167-1.832,0.5c-0.342,0.334-0.514,0.782-0.514,1.343v0.316c0,0.474,0.167,0.843,0.5,1.105
		c0.334,0.263,0.826,0.395,1.476,0.395c1.352,0,2.354-0.325,3.003-0.975c0.299-0.299,0.475-0.619,0.528-0.963
		c0.053-0.343,0.079-0.786,0.079-1.331v-0.392H95.473z"/>
	<path fill="#FFFFFF" d="M106.043,26.686c-1.528,0-2.748-0.451-3.661-1.357c-0.914-0.905-1.37-2.243-1.37-4.017v-9.378h3.319v8.667
		c0,0.632,0.07,1.155,0.21,1.567c0.139,0.413,0.333,0.737,0.579,0.975c0.245,0.236,0.536,0.404,0.87,0.5
		c0.333,0.097,0.693,0.145,1.08,0.145c0.334,0,0.681-0.053,1.041-0.157c0.359-0.105,0.688-0.289,0.988-0.553
		c0.298-0.263,0.548-0.615,0.75-1.054c0.203-0.438,0.303-0.983,0.303-1.633v-8.455h3.319v14.514h-3.16v-1.738h-0.053
		c-0.21,0.352-0.474,0.65-0.79,0.896s-0.663,0.448-1.04,0.605c-0.377,0.159-0.774,0.277-1.185,0.356
		C106.83,26.646,106.43,26.686,106.043,26.686z"/>
	<path fill="#FFFFFF" d="M117.54,14.674h-2.318v-2.739h2.318V8.221h3.319v3.714h3.662v2.739h-3.662v7.64
		c0,0.615,0.127,1.019,0.382,1.211c0.254,0.194,0.602,0.289,1.041,0.289c0.333,0,0.663-0.03,0.988-0.091
		c0.325-0.062,0.681-0.171,1.066-0.33l0.527,2.661c-0.299,0.139-0.708,0.276-1.226,0.408c-0.518,0.131-1.102,0.198-1.751,0.198
		c-0.827,0-1.52-0.098-2.083-0.29c-0.562-0.194-1.009-0.474-1.343-0.843c-0.335-0.369-0.571-0.82-0.712-1.357
		c-0.141-0.536-0.21-1.146-0.21-1.831V14.674z"/>
	<path fill="#FFFFFF" d="M128.552,11.935l3.292,10.721h0.106l3.319-10.721h3.531l-7.534,20.546l-3.109-1.081l1.87-4.768
		l-5.163-14.699h3.688V11.935z"/>
</g>
<g>
	<path fill="#FFFFFF" d="M148.494,87.327c0.078-0.729,0.061-1.291-0.053-1.686c-0.113-0.395-0.213-0.732-0.299-1.012l-7.209,7.578
		c0.208,0,0.438,0.132,0.689,0.395c0.251,0.264,0.542,0.553,0.872,0.869c0.33,0.314,0.711,0.604,1.146,0.868
		c0.434,0.262,0.928,0.395,1.483,0.395c0.677,0,1.237-0.114,1.679-0.343s0.794-0.531,1.054-0.908
		c0.26-0.377,0.443-0.815,0.547-1.316c0.104-0.5,0.156-1.021,0.156-1.564c0-0.474-0.031-0.958-0.091-1.449
		C148.407,88.663,148.416,88.053,148.494,87.327z"/>
	<path fill="#FFFFFF" d="M66.517,79.825c-0.598,0.603-1.149,1.291-1.653,2.066c-0.504,0.774-0.998,1.729-1.483,2.863
		c-0.487,1.137-0.829,2.134-1.028,2.995c-0.199,0.859-0.299,1.668-0.299,2.424c0,0.449,0.03,0.882,0.091,1.303
		c0.061,0.42,0.169,0.797,0.325,1.127c0.156,0.332,0.365,0.601,0.625,0.808c0.261,0.204,0.592,0.308,0.991,0.308
		c0.643,0,1.226-0.279,1.748-0.838c0.521-0.56,0.973-1.231,1.355-2.019c0.382-0.786,0.691-1.6,0.926-2.438
		c0.234-0.839,0.386-1.536,0.457-2.096l1.94-8.463c-0.711,0-1.405,0.176-2.082,0.527C67.754,78.746,67.116,79.226,66.517,79.825z"/>
	<path fill="#FFFFFF" d="M114.235,69.393c0.394-1.171,0.722-2.164,0.987-2.979c0.122-0.381,0.297-0.858,0.526-1.432
		c0.228-0.571,0.473-1.188,0.736-1.848c0.263-0.659,0.526-1.345,0.79-2.056c0.262-0.711,0.504-1.396,0.724-2.056
		c0.219-0.661,0.398-1.276,0.54-1.849c0.141-0.573,0.21-1.058,0.21-1.458c-0.001-0.554-0.186-0.833-0.555-0.833
		c-0.563,0-1.048,0.174-1.453,0.521c-0.404,0.345-0.787,0.838-1.148,1.479c-0.361,0.64-0.721,1.419-1.083,2.335
		c-0.361,0.918-0.77,1.938-1.227,3.063c-0.247,1.011-0.502,2.05-0.763,3.121c-0.262,1.071-0.472,2.129-0.632,3.179
		c-0.159,1.048-0.315,2.079-0.468,3.093c-0.154,1.014-0.298,1.964-0.432,2.85c-0.26,2.187-0.469,4.337-0.625,6.453
		c0.381-1.162,0.8-2.426,1.256-3.789c0.456-1.365,0.907-2.712,1.355-4.042C113.419,71.816,113.84,70.564,114.235,69.393z"/>
	<path fill="#FFFFFF" d="M51.153,60.126c-0.92-0.837-2.15-1.526-3.693-2.067c-1.542-0.541-3.484-0.811-5.825-0.811
		c-1.756,0-3.349,0.336-4.775,1.005c-1.427,0.668-2.697,1.578-3.81,2.726c-1.114,1.148-2.079,2.489-2.896,4.019
		c-0.818,1.533-1.492,3.162-2.022,4.894c-0.53,1.731-0.922,3.515-1.173,5.35c-0.256,1.838-0.383,3.627-0.383,5.365
		c0,0.713,0.003,1.674,0.013,2.88c0.009,1.208,0.055,2.497,0.143,3.87c0.088,1.372,0.225,2.76,0.417,4.168
		c0.191,1.407,0.472,2.68,0.847,3.816c0.373,1.139,0.841,2.067,1.406,2.79c0.563,0.719,1.27,1.081,2.122,1.081
		c0.884,0,1.639-0.309,2.264-0.926s1.145-1.418,1.562-2.399c0.417-0.98,0.747-2.094,0.99-3.335c0.243-1.244,0.426-2.49,0.547-3.74
		c0.121-1.252,0.199-2.447,0.234-3.586c0.035-1.139,0.052-2.107,0.052-2.906v-1.225c-1.428-0.563-2.552-1.058-3.369-1.484
		c-0.817-0.426-1.433-0.836-1.845-1.229c-0.413-0.392-0.676-0.806-0.788-1.24c-0.111-0.435-0.167-0.944-0.167-1.524
		c0-0.32,0.008-0.636,0.025-0.949c0.017-0.312,0.065-0.588,0.142-0.829c0.077-0.24,0.19-0.437,0.337-0.588
		c0.145-0.151,0.348-0.228,0.606-0.228c0.172,0,0.331,0.038,0.477,0.108c0.146,0.074,0.331,0.173,0.556,0.298
		c0.567,0.326,1.083,0.593,1.547,0.8c0.464,0.207,0.86,0.375,1.188,0.5c0.379,0.146,0.723,0.253,1.032,0.326
		c0-0.228,0.004-0.68,0.013-1.355c0.008-0.674,0.061-1.446,0.158-2.315c0.095-0.868,0.257-1.776,0.485-2.723
		c0.227-0.949,0.56-1.816,0.997-2.606c0.436-0.789,1.006-1.442,1.705-1.96c0.7-0.518,1.566-0.776,2.599-0.776
		c0.313,0,0.633,0.03,0.962,0.091c0.329,0.061,0.629,0.174,0.898,0.341c0.269,0.165,0.494,0.388,0.676,0.667
		c0.182,0.28,0.274,0.637,0.274,1.073c0,0.124-0.004,0.206-0.013,0.25c-0.009,0.044-0.013,0.102-0.013,0.17l-1.583,6.774
		l-0.234,2.082c1.696-0.263,3.158-0.685,4.387-1.265c1.229-0.58,2.246-1.266,3.051-2.056c0.805-0.792,1.401-1.662,1.791-2.612
		c0.39-0.949,0.585-1.924,0.585-2.926c0-0.977-0.186-1.975-0.56-2.996C52.717,61.892,52.071,60.962,51.153,60.126z"/>
	<path fill="#FFFFFF" d="M309.847,109.547c-1.182,1.908-2.12,3.85-2.815,5.829c-0.575,1.665-0.289,2.499,0.855,2.499
		c0.417,0,0.79-0.053,1.12-0.157c0.329-0.104,0.634-0.291,0.91-0.56c0.279-0.268,0.522-0.564,0.73-0.884
		c0.207-0.321,0.43-0.772,0.663-1.355c0.234-0.581,0.442-1.153,0.625-1.716c0.183-0.564,0.413-1.315,0.69-2.252
		c0.156-0.504,0.271-1.064,0.349-1.683c0.074-0.617,0.165-1.359,0.271-2.226c0.104-0.868,0.171-1.421,0.201-1.661
		C312.229,106.25,311.029,107.639,309.847,109.547z"/>
	<path fill="#FFFFFF" d="M332.357,68.655l-2.353,3.382c-0.129-2.552-1.396-4.771-3.535-6.148c-2.279-1.457-5.252-1.763-8.214-0.848
		c-1.064,0.331-2.088,0.82-3.05,1.458c-0.282-0.269-0.589-0.518-0.914-0.746c-1.523-1.064-3.35-1.628-5.285-1.628
		c-0.192,0-0.384,0.027-0.577,0.039c-0.562-0.41-1.178-0.743-1.836-0.977c0.124-0.39,0.236-0.779,0.34-1.168
		c0.384-1.458,0.579-2.902,0.579-4.29c0-1.534-0.185-3.043-0.553-4.495c-0.398-1.579-1.002-3.019-1.791-4.281
		c-0.919-1.466-2.079-2.679-3.444-3.6c-1.683-1.137-3.648-1.739-5.686-1.739c-2,0-4.985,0.588-7.858,3.388
		c-1.541,1.502-2.938,3.434-4.145,5.74c-1.053,2.011-2.006,4.308-2.834,6.826c-0.251,0.765-0.487,1.539-0.714,2.325
		c-0.653,0.026-1.283,0.081-1.885,0.163c-1.117,0.153-2.087,0.409-2.963,0.78c-0.95,0.402-1.765,0.975-2.438,1.66
		c-1.047,0.167-2.049,0.459-2.981,0.91c-0.263,0.126-0.512,0.26-0.746,0.397c-0.004-0.004-0.01-0.007-0.017-0.011
		c-1.382-0.876-3.064-1.35-5.146-1.45l-0.259-0.013l-0.26,0.008c-1.717,0.055-3.313,0.537-4.735,1.428
		c-1.074,0.674-2.018,1.534-2.813,2.559c-0.933-0.788-2.028-1.358-3.238-1.643c-0.561-0.129-1.143-0.208-1.737-0.235
		c-0.239-0.206-0.49-0.402-0.753-0.583c-0.919-0.639-2.471-1.399-4.651-1.399c-2.103,0-4.174,0.442-6.163,1.315
		c-1.701,0.748-3.327,1.756-4.835,3.001c-0.257,0.212-0.507,0.439-0.756,0.664c-0.407-0.512-0.84-1.001-1.326-1.446
		c-1.23-1.124-2.67-1.999-4.286-2.604c-1.562-0.583-3.237-0.878-4.981-0.878c-1.223,0-2.401,0.153-3.533,0.421
		c0.034-0.421,0.068-0.844,0.068-1.269c0-2.386-0.684-4.659-2.036-6.764c-1.077-1.67-2.519-3.199-4.286-4.546
		c-1.534-1.167-3.323-2.23-5.32-3.162c-1.886-0.877-3.925-1.632-6.062-2.24c-2.093-0.597-4.299-1.064-6.554-1.389
		c-4.276-0.618-8.629-0.666-12.666-0.093c-1.977,0.279-3.889,0.725-5.688,1.324c-1.892,0.631-3.671,1.453-5.29,2.443
		c-1.803,1.103-3.391,2.467-4.722,4.061c-1.362,1.633-2.428,3.509-3.168,5.569c-0.738,2.055-1.113,4.336-1.113,6.779
		c0,5.411,2.709,7.842,5.261,8.717l-7.238,4.533c0.118-0.168,0.232-0.341,0.343-0.512c1.021-1.577,1.54-3.234,1.54-4.926
		c0-0.483-0.033-0.987-0.098-1.512c-0.175-1.481-0.771-2.9-1.73-4.11c-0.909-1.142-2.125-2.031-3.618-2.642
		c-1.25-0.511-2.684-0.759-4.383-0.759c-1.268,0-2.481,0.209-3.594,0.619c-0.938,0.342-1.818,0.799-2.607,1.353
		c-0.716,0.499-1.379,1.075-1.957,1.699c-0.426,0.455-0.823,0.935-1.185,1.427c-1.134,1.435-2.035,2.606-2.75,3.573
		c-0.687,0.928-1.271,1.713-1.75,2.355l-1.253,1.673c-0.317,0.421-0.747,0.965-1.288,1.629c-0.201,0.245-0.399,0.476-0.595,0.688
		l-0.511-2.127c0.07-0.492,0.105-0.979,0.105-1.461c0-1.335-0.184-2.606-0.541-3.793c1.107-0.313,2.171-0.833,3.146-1.563
		c1.573-1.172,2.743-2.796,3.476-4.822c0.256-0.677,0.545-1.494,0.869-2.453c0.309-0.918,0.626-1.884,0.955-2.899
		c0.333-1.029,0.655-2.063,0.968-3.099c0.298-0.988,0.574-1.895,0.839-2.759c0.15-0.502,0.268-1,0.347-1.48
		c0.095-0.572,0.145-1.148,0.145-1.712c0-1.546-0.347-2.992-1.033-4.295c-0.686-1.306-1.644-2.388-2.865-3.228
		c-0.929-0.635-1.967-1.111-3.107-1.42c-2.064-0.553-4.311-0.518-6.426,0.118c-1.165,0.349-2.246,0.862-3.225,1.533
		c-0.402,0.276-0.772,0.585-1.125,0.91c-0.952-1.334-2.179-2.398-3.676-3.143c-1.479-0.736-3.188-1.11-5.083-1.11
		c-2.123,0-4.136,0.459-5.976,1.36c-1.605,0.783-3.083,1.85-4.395,3.172c-1.164,1.173-2.214,2.538-3.122,4.053
		c-0.787,1.312-1.5,2.708-2.122,4.148c-0.629,1.453-1.165,2.974-1.594,4.516l-1.011,3.635c-0.331,1.19-0.596,2.335-0.81,3.428
		c-2.543-0.85-5.357-0.555-7.693,0.56c-0.757-0.438-1.598-0.741-2.492-0.896c-0.632-0.107-1.315-0.158-2.152-0.158
		c-0.75,0-1.414,0.048-2.029,0.147c-1.271,0.203-2.425,0.672-3.404,1.373c-0.897,0.635-1.657,1.452-2.263,2.436
		c-0.01,0.016-0.018,0.034-0.026,0.049c-0.965-0.864-2.118-1.487-3.398-1.787c-0.561-0.129-1.145-0.208-1.738-0.235
		c-0.238-0.205-0.488-0.398-0.746-0.577c-0.919-0.641-2.473-1.406-4.66-1.406c-1.198,0-2.384,0.161-3.554,0.445
		c0.039-0.502,0.073-1.005,0.073-1.51c0-2.709-0.559-5.359-1.659-7.874c-1.118-2.552-2.782-4.825-4.945-6.75
		c-2.088-1.86-4.663-3.343-7.656-4.41c-2.901-1.033-6.23-1.557-9.894-1.557c-2.978,0-5.846,0.496-8.522,1.472
		c-2.61,0.951-5.055,2.315-7.266,4.051c-2.14,1.681-4.078,3.705-5.763,6.019c-1.626,2.234-3.023,4.724-4.152,7.4
		c-1.104,2.62-1.962,5.455-2.55,8.427c-0.584,2.95-0.879,6.043-0.879,9.192c0,1.79,0.092,3.705,0.275,5.689
		c0.186,2.037,0.488,4.084,0.898,6.082c0.424,2.067,0.984,4.082,1.664,5.987c0.761,2.132,1.725,4.07,2.867,5.766
		c1.319,1.955,2.918,3.56,4.755,4.771c2.192,1.443,4.677,2.175,7.385,2.175c2.232,0,4.353-0.431,6.309-1.281
		c1.788-0.778,3.424-1.845,4.866-3.166c1.35-1.238,2.541-2.688,3.544-4.313c0.896-1.455,1.665-3.01,2.284-4.621
		c0.508-1.323,0.916-2.69,1.227-4.075c0.167,0.868,0.403,1.706,0.718,2.502c0.671,1.694,1.611,3.183,2.785,4.416
		c1.213,1.277,2.637,2.275,4.232,2.962c2.976,1.288,6.267,1.359,9.394,0.337c0.885-0.29,1.754-0.646,2.592-1.063
		c1.755,1.213,3.832,1.85,6.089,1.85c1.961,0,3.896-0.468,5.755-1.391c1.417,0.836,3.05,1.261,4.867,1.261
		c1.202,0,2.357-0.236,3.451-0.708c1.22-0.53,2.288-1.354,3.183-2.451c0.537-0.663,1.011-1.418,1.453-2.316
		c0.325-0.666,0.643-1.431,0.969-2.341l0.274-0.769c1.051,0.485,2.207,0.794,3.444,0.955c0.165,0.726,0.384,1.419,0.667,2.061
		c0.702,1.604,1.819,2.97,3.228,3.951c1.542,1.073,3.387,1.618,5.483,1.618c1.758,0,3.448-0.473,4.887-1.366
		c0.396-0.245,0.773-0.522,1.134-0.832c0.821,0.563,1.743,1.029,2.756,1.391c1.512,0.543,3.231,0.808,5.254,0.808
		c1.488,0,3.023-0.197,4.566-0.584c1.447-0.365,2.867-0.878,4.219-1.526c1.349-0.647,2.625-1.425,3.79-2.306
		c0.051-0.037,0.094-0.08,0.144-0.117c0.874,1.099,1.926,2.027,3.158,2.746c1.275,0.744,2.721,1.287,4.304,1.614
		c1.315,0.271,2.718,0.408,4.17,0.408c1.83,0,3.768-0.199,5.759-0.586c1.869-0.365,3.748-0.869,5.583-1.497
		c1.815-0.622,3.453-1.695,5.248-2.186c5.038-1.379,6.91,1.945,12.414,3.36l-0.007-0.035c0.316,0.116,0.627,0.237,0.959,0.325
		c1.171,0.386,2.404,0.75,3.675,1.081c1.382,0.358,2.805,0.67,4.232,0.93c1.425,0.262,2.854,0.468,4.245,0.622
		c1.479,0.16,2.916,0.241,4.27,0.241c2.323,0,4.522-0.264,6.54-0.782c2.031-0.524,3.907-1.262,5.577-2.199
		c1.72-0.962,3.253-2.122,4.561-3.447c0.395-0.4,0.766-0.816,1.123-1.241c1.313,1.477,2.879,2.694,4.702,3.597
		c2.112,1.043,4.513,1.573,7.134,1.573c1.545,0,3.09-0.181,4.583-0.536c1.361-0.321,2.702-0.762,3.984-1.309
		c0.112-0.047,0.218-0.104,0.331-0.153c0.591,0.381,1.204,0.728,1.854,1.009c2.976,1.28,6.262,1.354,9.394,0.333
		c0.885-0.29,1.754-0.646,2.591-1.063c1.756,1.215,3.832,1.849,6.088,1.849c1.883,0,3.739-0.441,5.531-1.29
		c0.354,0.188,0.723,0.356,1.101,0.5c1.24,0.474,2.561,0.713,3.923,0.713c1.486,0,2.991-0.288,4.47-0.854
		c0.86-0.327,1.711-0.742,2.542-1.236c0.291,0.204,0.596,0.397,0.91,0.574c2.37,1.317,5.277,1.508,8.416,0.752
		c1.008-0.242,2.049-0.568,3.099-0.972c0.981-0.376,1.972-0.817,2.948-1.315c0.102-0.053,0.198-0.109,0.301-0.162
		c0.206,0.188,0.418,0.37,0.635,0.541c2.145,1.714,4.746,2.617,7.522,2.617c1.292,0,2.658-0.218,4.059-0.649
		c1.111-0.344,2.293-0.813,3.602-1.441c0.185-0.088,0.38-0.186,0.573-0.281c0.087,0.063,0.168,0.136,0.257,0.196
		c-0.164,0.23-0.33,0.464-0.495,0.704c-0.62,0.931-1.084,1.657-1.417,2.223c-0.272,0.464-0.75,1.298-1.425,2.503
		c-1.776,3.171-2.557,6.365-2.32,9.46c0.136,1.92,0.641,3.678,1.497,5.221c0.905,1.632,2.118,2.964,3.608,3.959
		c1.215,0.812,2.562,1.415,4.014,1.801c1.292,0.342,2.677,0.515,4.113,0.515c1.869,0,3.654-0.316,5.317-0.942
		c1.63-0.621,3.08-1.472,4.312-2.541c1.076-0.936,2.055-2.054,2.905-3.321c0.78-1.16,1.429-2.364,1.926-3.583
		c0.446-1.096,0.83-2.283,1.14-3.521c0.31-1.233,0.523-2.327,0.651-3.344l0.301-2.367l0.034-0.34
		c0.002-0.027,0.021-0.281,0.126-0.947l0.045-0.344c0.12-1.178,0.22-2.017,0.298-2.61c1.511-1.029,2.047-1.435,2.377-1.708
		c0.899-0.716,1.446-1.149,1.597-1.265c0.604-0.437,1.36-1.074,2.507-2.123c0.733-0.686,1.434-1.402,2.108-2.16
		c0.761-0.866,1.409-1.755,1.928-2.645l1.272-2.179L332.357,68.655z M50.843,78.619c-2.034,1.025-4.423,1.746-7.165,2.162
		c-0.052,1.269-0.095,2.433-0.13,3.491c-0.018,0.452-0.036,0.904-0.053,1.355c-0.018,0.451-0.031,0.867-0.039,1.239
		c-0.009,0.374-0.018,0.7-0.026,0.978c-0.009,0.277-0.014,0.471-0.014,0.573c-0.036,1.217-0.179,2.479-0.431,3.784
		c-0.253,1.309-0.62,2.583-1.099,3.831c-0.479,1.246-1.063,2.427-1.75,3.544c-0.688,1.114-1.49,2.094-2.404,2.934
		c-0.916,0.839-1.938,1.504-3.072,2c-1.133,0.491-2.37,0.739-3.711,0.739c-1.423,0-2.693-0.369-3.813-1.105
		c-1.119-0.737-2.1-1.729-2.941-2.978s-1.553-2.688-2.135-4.315c-0.582-1.629-1.054-3.333-1.418-5.109
		c-0.365-1.776-0.629-3.566-0.794-5.37c-0.166-1.801-0.248-3.502-0.248-5.096c0-2.738,0.252-5.382,0.757-7.932
		c0.504-2.547,1.226-4.937,2.165-7.164s2.078-4.261,3.416-6.099c1.339-1.838,2.847-3.416,4.525-4.733
		c1.678-1.317,3.503-2.337,5.477-3.056c1.973-0.72,4.073-1.08,6.298-1.08c2.934,0,5.505,0.394,7.715,1.181
		c2.208,0.787,4.047,1.835,5.515,3.142c1.468,1.307,2.572,2.807,3.314,4.503c0.742,1.697,1.114,3.452,1.114,5.27
		c0,1.703-0.332,3.387-0.995,5.054c-0.664,1.668-1.665,3.204-3,4.611C54.563,76.38,52.877,77.595,50.843,78.619z M130.448,95.562
		c-0.825,0.624-1.718,1.167-2.681,1.628c-0.963,0.462-1.961,0.825-2.994,1.083c-1.032,0.261-2.026,0.389-2.98,0.389
		c-1.25,0-2.27-0.142-3.058-0.425c-0.791-0.282-1.411-0.659-1.861-1.128c-0.451-0.468-0.76-0.998-0.924-1.588
		c-0.165-0.593-0.247-1.201-0.247-1.833c0-0.404,0.047-0.904,0.143-1.495c0.095-0.592,0.277-1.259,0.546-2.001
		c0.27-0.741,0.647-1.559,1.133-2.451c0.485-0.89,1.119-1.85,1.9-2.873c0.312-0.318,0.598-0.604,0.858-0.86
		c0.26-0.256,0.486-0.486,0.678-0.689c0.191-0.203,0.339-0.393,0.443-0.568c0.104-0.178,0.156-0.362,0.156-0.557
		c0-0.373-0.065-0.672-0.195-0.902c-0.13-0.229-0.317-0.345-0.56-0.345c-0.295,0-0.677,0.194-1.146,0.583
		c-0.486,0.408-0.999,1.087-1.535,2.041l-7.653,13.37c-0.417,0.631-0.833,1.076-1.249,1.335s-0.902,0.387-1.458,0.387
		c-0.747,0-1.336-0.15-1.771-0.453c-0.434-0.301-0.764-0.708-0.989-1.225c-0.226-0.513-0.369-1.109-0.43-1.786
		s-0.091-1.401-0.091-2.169c0-0.804,0.023-1.827,0.067-3.048c-0.037,0.018-0.071,0.038-0.109,0.057
		c-0.651,0.321-1.328,0.59-2.03,0.807c-0.703,0.218-1.419,0.325-2.147,0.325c-1.301,0-2.352-0.264-3.149-0.794
		c-0.798-0.527-1.432-1.223-1.899-2.08c-0.468-0.859-0.816-1.823-1.041-2.89c-0.226-1.068-0.409-2.148-0.547-3.242h-0.417
		l-4.659,12.99c-0.242,0.675-0.473,1.237-0.689,1.678c-0.218,0.441-0.438,0.802-0.664,1.08c-0.226,0.276-0.468,0.474-0.729,0.587
		c-0.261,0.111-0.547,0.167-0.859,0.167c-0.711,0-1.283-0.15-1.717-0.455c-0.434-0.303-0.769-0.71-1.002-1.224
		c-0.234-0.51-0.39-1.092-0.469-1.744c-0.024-0.203-0.038-0.414-0.055-0.622c-0.563,0.596-1.166,1.176-1.835,1.726
		c-0.833,0.686-1.728,1.264-2.681,1.739c-0.955,0.474-1.91,0.709-2.864,0.709c-1.153,0-2.114-0.365-2.884-1.095
		c-0.77-0.731-1.434-1.79-1.994-3.185c-0.42,0.482-0.936,0.972-1.549,1.471c-0.613,0.497-1.281,0.949-2.007,1.353
		c-0.726,0.404-1.482,0.735-2.27,0.992c-0.787,0.258-1.574,0.386-2.361,0.386c-0.833,0-1.644-0.171-2.434-0.513
		c-0.79-0.34-1.488-0.83-2.095-1.471c-0.608-0.637-1.094-1.417-1.458-2.336c-0.365-0.92-0.547-1.957-0.547-3.113
		c0-1.295,0.183-2.626,0.55-3.993c0.368-1.365,0.934-2.844,1.702-4.436c0.768-1.591,1.593-2.965,2.474-4.123
		c0.881-1.16,1.845-2.171,2.893-3.036c1.047-0.864,2.151-1.551,3.312-2.063c1.161-0.509,2.344-0.765,3.548-0.765
		c0.402,0,0.716,0.079,0.942,0.236c0.228,0.158,0.415,0.338,0.563,0.539c0.147,0.202,0.292,0.399,0.432,0.592
		c0.14,0.193,0.313,0.333,0.524,0.421c0.209,0.088,0.422,0.144,0.642,0.17c0.217,0.027,0.441,0.04,0.668,0.04
		c0.192,0,0.388-0.004,0.588-0.012c0.201-0.01,0.397-0.015,0.59-0.015c0.261,0,0.506,0.026,0.734,0.079
		c0.227,0.055,0.426,0.167,0.601,0.343c0.174,0.175,0.309,0.42,0.405,0.736c0.095,0.316,0.144,0.746,0.144,1.289
		c0,0.83-0.088,1.749-0.261,2.762c-0.174,1.011-0.373,2.048-0.596,3.107c-0.225,1.063-0.48,2.27-0.766,3.629
		c-0.287,1.356-0.429,2.502-0.429,3.433c0,0.795,0.074,1.418,0.221,1.865c0.147,0.449,0.464,0.673,0.95,0.673
		c0.364,0,0.746-0.09,1.145-0.271c0.399-0.182,0.803-0.419,1.21-0.711c0.407-0.293,0.815-0.623,1.224-0.994
		c0.407-0.37,0.794-0.752,1.158-1.146c0.761-0.834,1.53-1.774,2.305-2.801c0.133-0.968,0.274-1.942,0.445-2.939
		c0.198-1.173,0.455-2.421,0.768-3.747c0.313-1.328,0.581-2.437,0.807-3.32c0.225-0.884,0.451-1.613,0.676-2.186
		c0.139-0.381,0.277-0.684,0.417-0.911c0.139-0.226,0.299-0.404,0.482-0.533c0.182-0.13,0.407-0.218,0.676-0.261
		c0.268-0.043,0.603-0.065,1.002-0.065c0.451,0,0.802,0.022,1.054,0.065c0.252,0.043,0.438,0.148,0.56,0.312
		c0.122,0.165,0.196,0.404,0.221,0.715c0.026,0.313,0.039,0.739,0.039,1.276c0,0.642-0.044,1.552-0.13,2.734
		c-0.087,1.179-0.113,2.213-0.078,3.096h0.287c0.346-0.693,0.78-1.604,1.301-2.732s1.067-2.066,1.641-2.811
		c0.573-0.745,1.223-1.375,1.952-1.888c0.729-0.511,1.57-0.768,2.525-0.768c0.329,0,0.65,0.057,0.963,0.169
		c0.312,0.114,0.585,0.273,0.819,0.481c0.233,0.209,0.419,0.465,0.56,0.769c0.138,0.304,0.208,0.646,0.208,1.028
		c0,0.296-0.043,0.708-0.13,1.236c-0.087,0.529-0.226,1.221-0.416,2.07c-0.19,0.852-0.33,1.551-0.416,2.097
		c-0.087,0.545-0.13,1.001-0.13,1.365c0,0.626,0.061,1.146,0.182,1.563c0.121,0.414,0.282,0.749,0.481,1.002
		c0.199,0.252,0.425,0.43,0.676,0.532c0.252,0.104,0.517,0.157,0.794,0.157c0.781,0,1.587-0.174,2.421-0.521
		c0.471-0.195,0.914-0.41,1.34-0.634c0.014-0.204,0.026-0.403,0.041-0.61c0.14-1.985,0.325-4.063,0.56-6.231
		c0.235-2.17,0.517-4.277,0.847-6.323c0.128-0.704,0.287-1.563,0.474-2.582c0.188-1.02,0.441-2.106,0.761-3.258
		s0.658-2.364,1.011-3.633c0.353-1.269,0.786-2.496,1.298-3.682c0.512-1.185,1.09-2.314,1.732-3.387
		c0.643-1.073,1.364-2.012,2.162-2.816c0.798-0.805,1.676-1.441,2.631-1.907c0.956-0.468,1.998-0.702,3.126-0.702
		c0.884,0,1.614,0.143,2.186,0.428c0.573,0.285,1.029,0.682,1.367,1.192c0.338,0.508,0.577,1.118,0.716,1.827
		c0.139,0.708,0.208,1.478,0.208,2.306c0,1.485-0.187,3.083-0.56,4.794c-0.373,1.712-0.846,3.428-1.418,5.149
		c-0.572,1.721-1.197,3.393-1.874,5.018c-0.677,1.625-1.328,3.092-1.952,4.401c-0.625,1.312-1.176,2.416-1.653,3.314
		c-0.477,0.9-0.794,1.491-0.95,1.771l-3.097,4.663l0.623,0.399c0.625-0.813,1.311-1.705,2.057-2.676
		c0.746-0.972,1.479-1.898,2.199-2.783c0.72-0.883,1.445-1.801,2.175-2.754c0.728-0.954,1.266-1.556,1.613-1.803
		c0.538-0.388,1.197-0.72,1.979-0.992c0.78-0.275,1.648-0.413,2.603-0.413c0.486,0,0.951,0.116,1.393,0.345
		c0.442,0.23,0.828,0.558,1.158,0.981c0.33,0.424,0.59,0.936,0.781,1.537c0.191,0.6,0.286,1.271,0.286,2.013
		c0,0.724-0.238,1.585-0.716,2.583c-0.478,0.997-0.976,1.866-1.497,2.608c-0.52,0.742-1.084,1.484-1.692,2.225
		c-0.607,0.742-1.172,1.489-1.692,2.241c-0.521,0.75-0.955,1.496-1.301,2.237c-0.347,0.741-0.521,1.484-0.521,2.226
		c0,0.637,0.152,1.09,0.456,1.364c0.303,0.274,0.776,0.412,1.419,0.412c0.347,0,0.724-0.121,1.133-0.357
		c0.407-0.238,0.828-0.553,1.262-0.941c0.433-0.389,0.872-0.821,1.315-1.299c0.442-0.478,0.868-0.961,1.276-1.457
		c0.407-0.495,0.794-0.967,1.158-1.417c0.365-0.452,0.694-0.835,0.99-1.154l1.562,6.494
		C131.953,94.261,131.271,94.938,130.448,95.562z M134.56,67.207c-0.545,0.409-1.097,0.612-1.652,0.612
		c-0.556,0-1.042-0.212-1.458-0.637c-0.417-0.425-0.625-1.063-0.625-1.914c0-0.312,0.012-0.715,0.039-1.21
		c0.026-0.495,0.056-1.041,0.091-1.64c0.035-0.6,0.078-1.233,0.129-1.901c0.052-0.667,0.104-1.323,0.156-1.965
		c0.121-1.51,0.261-3.132,0.417-4.867c0-0.521,0.129-0.985,0.391-1.393s0.601-0.755,1.018-1.042
		c0.417-0.287,0.887-0.507,1.409-0.664s1.044-0.234,1.566-0.234c0.456,0,0.894,0.057,1.314,0.17
		c0.419,0.113,0.793,0.282,1.122,0.508c0.328,0.226,0.588,0.521,0.78,0.885c0.191,0.365,0.289,0.79,0.289,1.274
		c0,0.209-0.019,0.421-0.055,0.639c-0.036,0.217-0.091,0.447-0.164,0.689c-0.256,0.833-0.535,1.749-0.835,2.746
		c-0.301,0.999-0.611,1.992-0.93,2.98c-0.319,0.989-0.629,1.931-0.93,2.825c-0.302,0.894-0.571,1.652-0.808,2.278
		C135.528,66.178,135.107,66.8,134.56,67.207z M159.841,95.31c-1.415,0.701-2.902,1.322-4.461,1.857
		c-1.56,0.534-3.134,0.957-4.722,1.267c-1.587,0.31-3.093,0.465-4.516,0.465c-1.024,0-1.978-0.091-2.863-0.274
		c-0.884-0.183-1.661-0.469-2.329-0.859c-0.668-0.389-1.21-0.899-1.627-1.53c-0.416-0.632-0.667-1.395-0.754-2.291
		c-0.244,0.055-0.482,0.088-0.716,0.105c-0.234,0.019-0.464,0.026-0.689,0.026c-0.278,0-0.539-0.008-0.781-0.025
		c-0.243-0.019-0.451-0.084-0.625-0.197c-0.174-0.116-0.313-0.3-0.417-0.554c-0.104-0.256-0.156-0.619-0.156-1.093
		c0-0.421,0.105-0.812,0.313-1.171c0.208-0.36,0.451-0.681,0.729-0.959c0.277-0.281,0.556-0.526,0.833-0.738
		c0.277-0.209,0.486-0.375,0.625-0.498c0.971-0.843,1.761-1.543,2.369-2.106c0.607-0.561,1.214-1.213,1.822-1.959
		s1.089-1.354,1.445-1.83c0.355-0.473,0.776-1.033,1.262-1.683c0.486-0.647,1.076-1.442,1.771-2.38
		c0.693-0.939,1.596-2.111,2.707-3.514c0.226-0.315,0.478-0.623,0.756-0.921c0.277-0.299,0.585-0.566,0.923-0.803
		c0.338-0.236,0.71-0.43,1.119-0.579c0.408-0.15,0.864-0.224,1.367-0.224c0.833,0,1.476,0.092,1.928,0.276
		c0.451,0.185,0.78,0.409,0.989,0.67c0.208,0.263,0.329,0.539,0.364,0.829c0.035,0.289,0.052,0.539,0.052,0.749
		c0,0.421-0.166,0.887-0.495,1.394c-0.329,0.509-0.694,1-1.093,1.474c-0.4,0.474-0.776,0.908-1.132,1.303
		c-0.356,0.395-0.56,0.689-0.613,0.881c0,0.544,0.039,1.039,0.118,1.488c0.08,0.447,0.187,0.886,0.319,1.315
		c0.132,0.431,0.27,0.885,0.411,1.368c0.141,0.48,0.277,1.039,0.409,1.67c0.129,0.634,0.147,1.502,0.051,2.605
		c-0.095,1.105-0.144,2.22-0.144,3.342c0.625-0.421,1.297-0.802,2.017-1.145s1.471-0.697,2.252-1.064
		c0.78-0.368,1.583-0.777,2.407-1.224c0.824-0.448,1.653-0.986,2.486-1.618l0.025,5.894C162.5,93.854,161.256,94.604,159.841,95.31z
		 M209.951,73.08c-1.24,1.053-2.829,1.918-4.765,2.596c-1.934,0.679-4.254,1.044-6.961,1.097c1.717,0,3.218,0.279,4.503,0.839
		c1.283,0.558,2.36,1.312,3.229,2.26c0.866,0.95,1.517,2.085,1.951,3.405c0.434,1.322,0.651,2.665,0.651,4.031
		c0,1.075-0.148,2.168-0.442,3.278c-0.297,1.109-0.739,2.175-1.329,3.2s-1.327,1.984-2.213,2.881
		c-0.884,0.895-1.921,1.679-3.11,2.344c-1.189,0.666-2.529,1.19-4.021,1.575c-1.493,0.384-3.133,0.576-4.919,0.576
		c-1.129,0-2.318-0.069-3.567-0.204c-1.249-0.136-2.51-0.32-3.787-0.554c-1.275-0.231-2.53-0.51-3.761-0.829
		c-1.233-0.319-2.396-0.664-3.489-1.032c-0.485-0.113-0.915-0.278-1.287-0.504c-0.375-0.226-0.56-0.626-0.56-1.203
		c0-2.914,0.073-5.9,0.221-8.957c0.147-3.06,0.447-6.085,0.898-9.079c0.451-2.995,1.058-5.6,1.823-7.814
		c0.763-2.213,1.848-4.365,3.253-6.456c1.232-0.853,2.352-1.281,3.358-1.281c1.266,0,2.325,0.713,3.177,2.143
		c-0.8,1.09-1.48,2.305-2.045,3.641c-0.563,1.338-0.993,2.525-1.287,3.563c-0.296,1.037-0.56,2.322-0.794,3.85
		c-0.234,1.531-0.421,3.027-0.56,4.487c-0.088,0.827-0.161,1.745-0.222,2.758c-0.062,1.011-0.117,2.001-0.17,2.97
		c-0.052,0.966-0.09,1.93-0.117,2.889c-0.025,0.957-0.039,1.878-0.039,2.758c0,0.143,0,0.337,0,0.585
		c0,0.249,0.021,0.506,0.065,0.772c0.043,0.265,0.1,0.511,0.169,0.731c0.068,0.222,0.171,0.385,0.312,0.49
		c1.058,0.355,2.195,0.657,3.41,0.906c1.214,0.246,2.429,0.372,3.645,0.372c1.474,0,2.906-0.181,4.295-0.545
		c1.389-0.365,2.62-0.938,3.697-1.729c1.076-0.79,1.939-1.8,2.589-3.032c0.65-1.233,0.977-2.806,0.977-4.723
		c0-1.029-0.191-1.883-0.573-2.566c-0.382-0.682-0.882-1.255-1.497-1.715c-0.616-0.463-1.32-0.83-2.109-1.104
		c-0.79-0.275-1.596-0.523-2.421-0.746c-0.823-0.22-1.63-0.437-2.42-0.65c-0.79-0.209-1.494-0.479-2.11-0.803
		c-0.616-0.326-1.114-0.732-1.496-1.217c-0.381-0.484-0.572-1.113-0.572-1.889c0-0.364,0.02-0.681,0.064-0.951
		c0.044-0.268,0.148-0.489,0.313-0.664c0.164-0.173,0.408-0.304,0.728-0.39c0.321-0.087,0.76-0.13,1.315-0.13
		c0.745,0,1.427,0.03,2.042,0.091c0.618,0.061,1.281,0.09,1.993,0.09c1.666,0,3.17-0.204,4.515-0.614
		c1.346-0.409,2.49-0.962,3.438-1.658c0.946-0.697,1.674-1.511,2.185-2.443c0.513-0.932,0.769-1.93,0.769-2.993
		c0-0.696-0.198-1.335-0.598-1.919c-0.399-0.584-0.959-1.106-1.678-1.569c-0.721-0.461-1.566-0.866-2.538-1.214
		c-0.973-0.348-2.032-0.64-3.177-0.875c-1.145-0.235-2.352-0.41-3.618-0.523c-1.268-0.112-2.551-0.168-3.854-0.168
		c-2.1,0-3.731,0.069-4.892,0.209c-1.598,0.175-3.086,0.449-4.463,0.823c-1.38,0.376-2.604,0.859-3.671,1.453
		c-1.067,0.591-1.879,1.264-2.435,2.013c-1.127,2.058-2.134,3.602-3.019,4.631c-0.885,1.029-1.605,1.543-2.161,1.543
		c-0.763,0-1.145-0.876-1.145-2.629c0-1.701,0.243-3.228,0.73-4.581c0.486-1.354,1.167-2.555,2.042-3.605
		c0.877-1.049,1.917-1.943,3.123-2.681c1.206-0.738,2.526-1.345,3.957-1.822c1.432-0.478,2.945-0.829,4.542-1.055
		c1.596-0.227,3.235-0.338,4.919-0.338c1.961,0,3.931,0.143,5.908,0.428c1.979,0.286,3.878,0.688,5.701,1.208
		c1.822,0.52,3.522,1.147,5.102,1.882c1.578,0.736,2.953,1.549,4.126,2.442c1.171,0.891,2.091,1.856,2.76,2.894
		c0.668,1.04,1.001,2.122,1.001,3.247c0,1.339-0.291,2.661-0.871,3.967C212.103,70.848,211.191,72.027,209.951,73.08z
		 M329.208,93.962c-0.522,0.586-1.075,1.154-1.666,1.707c-0.868,0.791-1.493,1.326-1.875,1.603
		c-0.122,0.086-0.755,0.585-1.898,1.495c-0.348,0.295-1.498,1.093-3.448,2.395c-0.475,0.313-0.799,0.88-0.975,1.705
		c-0.177,0.823-0.379,2.354-0.606,4.593c-0.1,0.638-0.162,1.13-0.187,1.474c-0.105,0.829-0.206,1.618-0.302,2.37
		c-0.094,0.751-0.264,1.607-0.506,2.571c-0.241,0.963-0.527,1.85-0.858,2.656c-0.327,0.807-0.761,1.61-1.299,2.408
		c-0.535,0.797-1.128,1.479-1.778,2.045c-0.648,0.563-1.433,1.018-2.352,1.366c-0.918,0.345-1.923,0.521-3.013,0.521
		c-0.884,0-1.703-0.101-2.456-0.3c-0.752-0.199-1.441-0.508-2.065-0.924c-0.623-0.416-1.134-0.984-1.532-1.703
		c-0.399-0.719-0.632-1.564-0.703-2.536c-0.139-1.837,0.365-3.778,1.512-5.823c0.64-1.146,1.093-1.938,1.354-2.378
		c0.26-0.444,0.667-1.081,1.223-1.914c0.555-0.813,1.137-1.551,1.744-2.209c1.214-1.368,2.216-2.47,3.008-3.303
		c0.792-0.83,1.732-1.722,2.826-2.675l0.571-3.146c-0.938,0.823-1.912,1.489-2.927,1.996c-1.017,0.506-2.003,0.76-2.956,0.76
		c-0.832,0-1.645-0.167-2.435-0.508c-0.79-0.338-1.487-0.823-2.095-1.456c-0.57-0.597-1.03-1.321-1.387-2.16
		c-0.487,0.275-0.96,0.543-1.404,0.791c-1.305,0.729-2.463,1.337-3.479,1.824c-1.017,0.485-1.921,0.849-2.71,1.093
		c-0.792,0.243-1.51,0.363-2.152,0.363c-1.311,0-2.469-0.396-3.469-1.195s-1.838-1.949-2.51-3.449
		c-0.138-0.309-0.265-0.637-0.387-0.972c-0.293,0.261-0.611,0.527-0.983,0.81c-0.563,0.429-1.188,0.857-1.874,1.284
		c-0.687,0.429-1.415,0.842-2.187,1.234c-0.773,0.392-1.548,0.739-2.329,1.04c-0.78,0.299-1.543,0.539-2.289,0.719
		c-0.745,0.18-1.436,0.271-2.074,0.271c-0.647,0-1.202-0.128-1.663-0.386c-0.458-0.257-0.856-0.615-1.189-1.077
		c-0.332-0.462-0.614-1.014-0.846-1.656c-0.228-0.64-0.43-1.355-0.6-2.142c-0.626,0.804-1.285,1.544-1.98,2.219
		c-0.694,0.677-1.402,1.267-2.123,1.762c-0.722,0.496-1.452,0.885-2.19,1.169c-0.738,0.282-1.455,0.423-2.149,0.423
		c-0.57,0-1.105-0.095-1.606-0.286s-0.947-0.513-1.335-0.962c-0.389-0.452-0.696-1.046-0.921-1.784
		c-0.027-0.091-0.049-0.193-0.074-0.29c-0.342,0.322-0.697,0.643-1.073,0.952c-0.835,0.686-1.728,1.264-2.684,1.739
		c-0.954,0.474-1.908,0.709-2.862,0.709c-1.152,0-2.114-0.365-2.883-1.095c-0.771-0.731-1.435-1.79-1.995-3.185
		c-0.42,0.482-0.937,0.972-1.547,1.471c-0.613,0.497-1.282,0.949-2.009,1.353c-0.726,0.404-1.481,0.735-2.27,0.992
		c-0.787,0.258-1.573,0.386-2.361,0.386c-0.834,0-1.645-0.171-2.435-0.513c-0.791-0.34-1.488-0.83-2.096-1.471
		c-0.445-0.468-0.824-1.015-1.141-1.635c-0.435,0.289-0.883,0.575-1.353,0.857c-0.858,0.52-1.762,0.979-2.707,1.381
		c-0.946,0.402-1.927,0.724-2.942,0.964c-1.017,0.243-2.046,0.363-3.087,0.363c-1.619,0-3.038-0.299-4.254-0.9
		c-1.214-0.6-2.228-1.408-3.037-2.423c-0.811-1.016-1.418-2.191-1.822-3.524c-0.405-1.333-0.607-2.733-0.607-4.199
		c0-0.959,0.181-2.104,0.543-3.43c0.362-1.328,0.738-2.507,1.127-3.533c0.388-1.029,0.875-2.008,1.461-2.942
		c0.588-0.933,1.274-1.755,2.06-2.466c0.784-0.711,1.664-1.276,2.641-1.695c0.975-0.419,2.059-0.631,3.249-0.631
		c0.974,0,1.876,0.157,2.709,0.468c0.835,0.312,1.561,0.75,2.178,1.313c0.616,0.564,1.098,1.244,1.445,2.041
		c0.349,0.797,0.521,1.688,0.521,2.678c0,1.053-0.351,2.232-1.055,3.538c-0.705,1.306-1.527,2.426-2.468,3.359
		c-0.938,0.933-2.055,1.766-3.351,2.495s-2.7,1.299-4.212,1.705c0.262,0.458,0.518,0.84,0.771,1.145
		c0.251,0.307,0.51,0.543,0.771,0.714c0.262,0.17,0.537,0.288,0.823,0.355c0.287,0.067,0.596,0.102,0.928,0.102
		c1.04,0,2.14-0.203,3.293-0.61c1.153-0.408,2.278-0.918,3.37-1.528c0.801-0.446,1.555-0.934,2.289-1.438
		c0.091-0.646,0.225-1.303,0.403-1.965c0.366-1.365,0.934-2.844,1.702-4.436c0.769-1.591,1.593-2.965,2.475-4.123
		c0.882-1.16,1.846-2.171,2.893-3.036c1.047-0.864,2.152-1.551,3.313-2.063c1.161-0.509,2.344-0.765,3.548-0.765
		c0.402,0,0.715,0.079,0.944,0.236c0.226,0.158,0.414,0.338,0.561,0.539c0.149,0.202,0.293,0.399,0.434,0.592
		c0.139,0.193,0.313,0.333,0.522,0.421s0.423,0.144,0.642,0.17c0.218,0.027,0.441,0.04,0.668,0.04c0.193,0,0.388-0.004,0.591-0.012
		c0.199-0.01,0.396-0.015,0.589-0.015c0.262,0,0.506,0.026,0.732,0.079c0.229,0.055,0.429,0.167,0.603,0.343
		c0.174,0.175,0.308,0.42,0.403,0.736c0.095,0.316,0.143,0.746,0.143,1.289c0,0.83-0.086,1.749-0.26,2.762
		c-0.174,1.011-0.373,2.048-0.597,3.107c-0.225,1.063-0.479,2.27-0.767,3.629c-0.286,1.356-0.429,2.502-0.429,3.433
		c0,0.795,0.073,1.418,0.222,1.865c0.146,0.447,0.464,0.673,0.95,0.673c0.364,0,0.746-0.09,1.146-0.271
		c0.397-0.182,0.802-0.419,1.21-0.711c0.407-0.293,0.814-0.623,1.223-0.994c0.408-0.37,0.793-0.752,1.158-1.146
		c0.391-0.429,0.783-0.887,1.177-1.361c0.042-0.198,0.084-0.388,0.132-0.562c0.519-1.772,1.004-4.412,1.454-7.92
		c0.048-0.256,0.112-0.605,0.193-1.051c0.082-0.443,0.205-0.926,0.371-1.446c0.163-0.522,0.368-1.051,0.611-1.588
		c0.242-0.537,0.529-1.023,0.858-1.458c0.329-0.434,0.716-0.789,1.158-1.066s0.941-0.424,1.498-0.443
		c0.92,0.044,1.577,0.194,1.978,0.448c0.398,0.254,0.599,0.568,0.599,0.943c-0.157,1.172-0.334,2.294-0.525,3.375
		c-0.195,1.079-0.392,2.168-0.589,3.264s-0.415,2.314-0.656,3.655c-0.241,1.342-0.435,2.416-0.581,3.227
		c-0.146,0.811-0.263,1.464-0.353,1.964c-0.089,0.5-0.134,0.758-0.134,0.774c0,0.323,0.031,0.634,0.092,0.928
		c0.061,0.296,0.152,0.561,0.274,0.792c0.122,0.233,0.277,0.421,0.471,0.564c0.191,0.145,0.416,0.216,0.679,0.216
		c0.383,0,0.774-0.102,1.173-0.307c0.402-0.203,0.776-0.498,1.125-0.887c0.365-0.354,0.688-0.814,0.967-1.379
		c0.278-0.548,0.487-1.182,0.627-1.906l2.869-14.187c0.084-0.415,0.423-0.768,1.018-1.054c0.596-0.286,1.27-0.429,2.023-0.429
		c0.854,0,1.533,0.156,2.036,0.468c0.502,0.313,0.753,0.712,0.753,1.198c0,0.469-0.016,1.107-0.047,1.914
		c-0.03,0.808-0.136,1.688-0.313,2.645c-0.179,0.954-0.394,2.109-0.645,3.462c-0.253,1.357-0.461,2.478-0.626,3.364
		c-0.165,0.889-0.309,1.663-0.434,2.328c-0.123,0.664-0.185,1.148-0.185,1.451c0,0.487,0.007,0.937,0.021,1.345
		c0.015,0.411,0.06,0.767,0.135,1.071s0.192,0.541,0.349,0.705c0.158,0.165,0.387,0.248,0.687,0.248
		c0.382,0,0.848-0.094,1.393-0.286c0.547-0.191,1.128-0.45,1.743-0.772c0.618-0.321,1.246-0.688,1.889-1.098
		c0.642-0.409,1.254-0.84,1.835-1.292c0.44-0.344,0.842-0.684,1.223-1.023c-0.327-2.109-0.491-4.479-0.491-7.111
		c0-1.042,0.043-2.15,0.128-3.332c0.086-1.18,0.206-2.352,0.362-3.514c-0.524-0.077-0.931-0.15-1.219-0.217
		c-0.289-0.067-0.596-0.135-0.918-0.202c-0.322-0.068-0.733-0.141-1.231-0.218c-0.497-0.078-1.219-0.173-2.16-0.291
		c-0.42-0.057-0.743-0.167-0.97-0.333c-0.227-0.164-0.393-0.357-0.498-0.58c-0.105-0.222-0.166-0.453-0.184-0.696
		c-0.017-0.241-0.026-0.449-0.026-0.623c0-0.273,0.171-0.482,0.51-0.625c0.342-0.145,0.776-0.252,1.311-0.325
		c0.53-0.072,1.114-0.112,1.751-0.121c0.637-0.008,1.247-0.003,1.832,0.013c0.584,0.019,1.107,0.032,1.57,0.04
		c0.463,0.009,0.78-0.004,0.954-0.039c0.47-2.336,1.063-4.599,1.781-6.787c0.72-2.189,1.524-4.136,2.416-5.841
		c0.893-1.704,1.866-3.071,2.923-4.101c1.058-1.029,2.166-1.544,3.326-1.544c0.748,0,1.429,0.207,2.045,0.625
		c0.616,0.416,1.141,0.971,1.576,1.664c0.433,0.693,0.768,1.504,1.002,2.432c0.235,0.926,0.352,1.895,0.352,2.9
		c0,0.832-0.122,1.71-0.365,2.636c-0.243,0.924-0.572,1.866-0.989,2.826s-0.908,1.931-1.471,2.916
		c-0.564,0.985-1.159,1.961-1.784,2.928c0.156-0.056,0.417-0.068,0.782-0.033c0.364,0.036,0.786,0.061,1.262,0.074
		c0.478,0.015,0.994,0.028,1.55,0.042c0.556,0.015,1.094,0.029,1.612,0.046c0.521,0.019,1.007,0.036,1.459,0.053
		s0.824,0.034,1.119,0.052c0.346,0.02,0.6,0.212,0.755,0.58c0.156,0.367,0.235,0.831,0.235,1.39c0,0.648-0.174,1.175-0.522,1.583
		c-0.348,0.407-0.729,0.611-1.146,0.611h-10.007c-0.505,0.694-1.016,1.376-1.53,2.042c-0.514,0.668-0.989,1.272-1.425,1.809
		c-0.068,1.078-0.13,2.137-0.182,3.178c-0.018,0.451-0.035,0.915-0.053,1.393c-0.019,0.477-0.034,0.948-0.053,1.418
		c-0.018,0.468-0.03,0.922-0.038,1.354c-0.01,0.434-0.014,0.832-0.014,1.196c0,0.938,0.087,1.727,0.261,2.37
		c0.174,0.64,0.428,1.167,0.758,1.573c0.332,0.407,0.736,0.704,1.214,0.885c0.481,0.181,1.017,0.272,1.607,0.272
		c0.365,0,0.82-0.086,1.369-0.261c0.546-0.172,1.145-0.412,1.796-0.715c0.652-0.305,1.339-0.665,2.061-1.08
		c0.719-0.416,1.432-0.873,2.135-1.367c0.061-0.042,0.112-0.091,0.171-0.134c0.053-0.726,0.13-1.421,0.237-2.079
		c0.209-1.257,0.466-2.81,0.771-4.659c0.305-1.847,0.664-3.304,1.081-4.373c0.416-1.065,0.895-2.147,1.431-3.239
		c0.399-0.78,0.972-1.375,1.718-1.784c0.745-0.408,1.473-0.611,2.186-0.611c0.606,0,1.127,0.152,1.56,0.455
		c0.435,0.305,0.651,0.777,0.651,1.42c0,0.192-0.021,0.4-0.063,0.625c-0.044,0.227-0.117,0.468-0.218,0.729
		c-0.307,0.797-0.564,1.749-0.775,2.848c-0.211,1.102-0.492,2.567-0.843,4.4c-0.353,1.834-0.631,3.288-0.838,4.363
		c-0.205,1.074-0.308,2.034-0.308,2.874c0,0.438,0.029,0.865,0.09,1.275c0.06,0.413,0.169,0.782,0.326,1.104
		c0.155,0.325,0.364,0.587,0.624,0.79c0.262,0.2,0.59,0.304,0.991,0.304c0.641,0,1.223-0.281,1.743-0.84
		c0.521-0.56,0.972-1.231,1.354-2.019c0.381-0.786,0.69-1.6,0.924-2.437c0.235-0.84,0.386-1.538,0.455-2.099l2.087-9.734
		c0.12-0.574,0.362-1.094,0.728-1.561c0.349-0.453,0.757-0.839,1.228-1.16c0.468-0.32,0.955-0.56,1.46-0.716
		c0.504-0.156,0.982-0.235,1.434-0.235c0.539,0,0.99,0.119,1.356,0.352c0.364,0.234,0.546,0.604,0.546,1.107
		c0,0.157-0.024,0.34-0.078,0.548c-0.081,0.461-0.19,1.08-0.325,1.86c-0.137,0.776-0.292,1.663-0.464,2.654
		c-0.175,0.993-0.415,2.386-0.727,4.175c-0.313,1.791-0.565,3.232-0.759,4.321c-0.44,2.577-0.889,5.344-1.346,8.303
		c0.526-0.294,1.096-0.658,1.705-1.092c0.61-0.435,1.287-1.016,2.035-1.743c0.745-0.728,1.579-1.643,2.499-2.744
		c0.921-1.1,1.952-2.475,3.098-4.123l1.248,5.794C330.094,92.866,329.692,93.409,329.208,93.962z"/>
	<path fill="#FFFFFF" d="M222.798,84.586c0.636-0.492,1.259-1.153,1.868-1.985s0.915-1.518,0.915-2.062
		c0-0.765-0.145-1.392-0.431-1.884c-0.288-0.493-0.641-0.74-1.059-0.74c-0.749,0-1.39,0.137-1.92,0.41
		c-0.532,0.27-0.976,0.623-1.333,1.057c-0.357,0.432-0.645,0.922-0.863,1.476c-0.218,0.552-0.47,1.233-0.757,2.049
		c-0.288,0.813-0.449,1.483-0.485,2.01c-0.033,0.528-0.051,0.978-0.051,1.35c0.627,0,1.313-0.157,2.051-0.47
		C221.474,85.483,222.162,85.079,222.798,84.586z"/>
	<path fill="#FFFFFF" d="M292.121,70.595c0.521-0.875,1.065-1.822,1.632-2.842c0.567-1.019,1.074-2.022,1.529-3.009
		c0.452-0.986,0.827-1.907,1.123-2.764c0.297-0.859,0.445-1.561,0.445-2.108c0-0.19-0.015-0.402-0.041-0.636
		c-0.025-0.232-0.083-0.452-0.169-0.66s-0.222-0.38-0.406-0.519c-0.183-0.139-0.438-0.208-0.77-0.208
		c-0.453,0-0.911,0.396-1.373,1.188c-0.461,0.792-0.905,1.805-1.333,3.037c-0.427,1.231-0.826,2.588-1.201,4.069
		c-0.374,1.481-0.719,2.921-1.03,4.315c0.26,0.025,0.521,0.048,0.782,0.067C291.569,70.547,291.839,70.57,292.121,70.595z"/>
	<path fill="#FFFFFF" d="M242.513,79.825c-0.598,0.603-1.15,1.291-1.652,2.066c-0.503,0.774-0.998,1.729-1.483,2.863
		c-0.487,1.137-0.829,2.134-1.028,2.995c-0.182,0.778-0.269,1.507-0.284,2.201l0.104,0.106c-0.038,0.041-0.079,0.079-0.119,0.12
		c0.001,0.446,0.03,0.878,0.091,1.299c0.06,0.42,0.169,0.797,0.326,1.127c0.155,0.332,0.365,0.601,0.625,0.808
		c0.261,0.204,0.592,0.308,0.99,0.308c0.645,0,1.228-0.279,1.748-0.838c0.522-0.56,0.974-1.231,1.356-2.019
		c0.382-0.786,0.69-1.6,0.925-2.438c0.235-0.839,0.387-1.536,0.456-2.096l1.941-8.463c-0.712,0-1.405,0.176-2.082,0.527
		C243.75,78.746,243.11,79.226,242.513,79.825z"/>
</g>
<rect x="147.97" y="15.704" fill="#FFFFFF" width="184.364" height="4.857"/>
</svg>
