<?xml version="1.0" encoding="utf-8"?>
<!-- Generator: Adobe Illustrator 16.0.0, SVG Export Plug-In . SVG Version: 6.00 Build 0)  -->
<!DOCTYPE svg PUBLIC "-//W3C//DTD SVG 1.1//EN" "http://www.w3.org/Graphics/SVG/1.1/DTD/svg11.dtd">
<svg version="1.1" id="Layer_1" xmlns="http://www.w3.org/2000/svg" xmlns:xlink="http://www.w3.org/1999/xlink" x="0px" y="0px"
	 width="74px" height="74px" viewBox="0 0 74 74" enable-background="new 0 0 74 74" xml:space="preserve">
<g>
	<path fill="#8012DD" d="M53.667,67.167H37.5c-7.72,0-14-6.28-14-14V16.75c0-6.111,4.972-11.083,11.083-11.083
		c6.112,0,11.083,4.972,11.083,11.083V23h8c7.72,0,14,6.28,14,14v16.168C67.667,60.887,61.387,67.167,53.667,67.167z M34.583,9.667
		c-3.906,0-7.083,3.178-7.083,7.083v36.417c0,5.514,4.486,10,10,10h16.167c5.514,0,10-4.486,10-10V36.999c0-5.514-4.486-10-10-10
		h-12V16.75C41.667,12.844,38.489,9.667,34.583,9.667z"/>
</g>
<g>
	<polygon fill="#8012DD" points="26.68,60.333 7.5,60.333 7.5,31.833 25.5,31.833 25.5,35.833 11.5,35.833 11.5,56.333 
		26.68,56.333 	"/>
</g>
<g>
	<rect x="44.5" y="34.417" fill="#8012DD" width="21.167" height="4"/>
</g>
<g>
	<rect x="44.5" y="44.083" fill="#8012DD" width="21.167" height="4"/>
</g>
<g>
	<rect x="44.5" y="53.5" fill="#8012DD" width="21.167" height="4"/>
</g>
</svg>
