<?xml version="1.0" encoding="utf-8"?>
<!-- Generator: Adobe Illustrator 16.0.0, SVG Export Plug-In . SVG Version: 6.00 Build 0)  -->
<!DOCTYPE svg PUBLIC "-//W3C//DTD SVG 1.1//EN" "http://www.w3.org/Graphics/SVG/1.1/DTD/svg11.dtd">
<svg version="1.1" id="Layer_1" xmlns="http://www.w3.org/2000/svg" xmlns:xlink="http://www.w3.org/1999/xlink" x="0px" y="0px"
	 width="40px" height="40px" viewBox="0 0 40 40" enable-background="new 0 0 40 40" xml:space="preserve">
<g>
	<path fill="#8012DD" d="M20,37.167c-1.838,0-3.334-1.496-3.334-3.334v-1.149c-1.155-0.302-2.252-0.756-3.278-1.356l-0.812,0.812
		c-1.259,1.26-3.457,1.26-4.715,0c-0.629-0.629-0.976-1.467-0.976-2.357c0-0.89,0.347-1.728,0.976-2.357l0.812-0.812
		c-0.601-1.026-1.054-2.124-1.356-3.278h-1.15c-1.838,0-3.334-1.496-3.334-3.334c0-1.838,1.496-3.334,3.334-3.334h1.15
		c0.301-1.154,0.755-2.252,1.355-3.279l-0.811-0.811c-0.63-0.63-0.977-1.467-0.977-2.357c0-0.891,0.347-1.728,0.977-2.358
		c1.258-1.259,3.455-1.26,4.715,0l0.811,0.811c1.026-0.6,2.124-1.054,3.279-1.355v-1.15c0-1.838,1.496-3.334,3.334-3.334
		c1.838,0,3.334,1.496,3.334,3.334v1.15c1.155,0.302,2.253,0.755,3.278,1.355l0.812-0.811c1.26-1.261,3.457-1.26,4.715,0
		c0.63,0.629,0.977,1.466,0.977,2.357c0,0.891-0.347,1.728-0.977,2.358l-0.812,0.811c0.601,1.026,1.055,2.124,1.356,3.278h1.149
		c1.838,0,3.334,1.496,3.334,3.334c0,1.838-1.496,3.334-3.334,3.334h-1.149c-0.302,1.154-0.756,2.253-1.356,3.278l0.812,0.812
		c0.63,0.63,0.977,1.468,0.977,2.357c0,0.891-0.347,1.729-0.977,2.357c-1.258,1.259-3.455,1.26-4.715,0l-0.812-0.812
		c-1.025,0.601-2.124,1.055-3.278,1.356v1.149C23.334,35.671,21.838,37.167,20,37.167z M13.12,28.767l0.683,0.461
		c1.228,0.827,2.592,1.392,4.055,1.677l0.809,0.158v2.771c0,0.735,0.599,1.334,1.334,1.334s1.334-0.599,1.334-1.334v-2.771
		l0.809-0.158c1.462-0.285,2.826-0.85,4.055-1.677l0.684-0.461l1.957,1.958c0.505,0.504,1.383,0.503,1.887,0
		c0.252-0.252,0.391-0.587,0.391-0.943c0-0.355-0.139-0.691-0.391-0.943l-1.958-1.957l0.461-0.684
		c0.827-1.229,1.392-2.593,1.677-4.055l0.158-0.809h2.771c0.735,0,1.334-0.599,1.334-1.334s-0.599-1.334-1.334-1.334h-2.771
		l-0.158-0.809c-0.285-1.462-0.85-2.827-1.677-4.055l-0.461-0.683l1.958-1.958c0.252-0.252,0.391-0.587,0.391-0.943
		c0-0.356-0.139-0.691-0.391-0.943c-0.504-0.505-1.383-0.505-1.887,0l-1.957,1.957l-0.684-0.46
		c-1.228-0.827-2.592-1.391-4.056-1.677l-0.808-0.158V6.167c0-0.735-0.599-1.334-1.334-1.334s-1.334,0.599-1.334,1.334v2.771
		l-0.808,0.158c-1.463,0.286-2.828,0.85-4.056,1.677l-0.683,0.46l-1.957-1.957c-0.504-0.504-1.383-0.503-1.886,0
		c-0.252,0.252-0.391,0.587-0.391,0.943c0,0.356,0.139,0.691,0.391,0.943l1.957,1.957l-0.46,0.683
		c-0.827,1.229-1.391,2.594-1.677,4.056l-0.158,0.809H6.167c-0.735,0-1.334,0.599-1.334,1.334s0.599,1.334,1.334,1.334h2.771
		l0.158,0.808c0.286,1.463,0.85,2.827,1.677,4.056l0.46,0.684l-1.958,1.957c-0.252,0.252-0.391,0.587-0.391,0.943
		s0.139,0.691,0.391,0.943c0.504,0.503,1.381,0.504,1.886,0L13.12,28.767z"/>
</g>
<g>
	<path fill="#8012DD" d="M20,27c-3.86,0-7-3.141-7-7c0-3.86,3.14-7,7-7c3.859,0,7,3.14,7,7C27,23.859,23.859,27,20,27z M20,15
		c-2.757,0-5,2.243-5,5s2.243,5,5,5s5-2.243,5-5S22.757,15,20,15z"/>
</g>
<g>
	<path fill="#8012DD" d="M20,27c-3.86,0-7-3.141-7-7c0-3.86,3.14-7,7-7c3.859,0,7,3.14,7,7C27,23.859,23.859,27,20,27z M20,15
		c-2.757,0-5,2.243-5,5s2.243,5,5,5s5-2.243,5-5S22.757,15,20,15z"/>
</g>
</svg>
