<?xml version="1.0" encoding="utf-8"?>
<!-- Generator: Adobe Illustrator 16.0.0, SVG Export Plug-In . SVG Version: 6.00 Build 0)  -->
<!DOCTYPE svg PUBLIC "-//W3C//DTD SVG 1.1//EN" "http://www.w3.org/Graphics/SVG/1.1/DTD/svg11.dtd">
<svg version="1.1" id="Layer_1" xmlns="http://www.w3.org/2000/svg" xmlns:xlink="http://www.w3.org/1999/xlink" x="0px" y="0px"
	 width="74px" height="74px" viewBox="0 0 74 74" enable-background="new 0 0 74 74" xml:space="preserve">
<g>
	<path fill="#8012DD" d="M23.644,66.324H5.19V47.869L48.355,4.703l18.455,18.454L23.644,66.324z M8.19,63.324h14.212l40.167-40.167
		L48.355,8.945L8.19,49.111V63.324z"/>
</g>
<g>
	
		<rect x="3.307" y="55.157" transform="matrix(0.7071 0.7071 -0.7071 0.7071 44.4156 6.0903)" fill="#8012DD" width="23.099" height="3"/>
</g>
<g>
	
		<rect x="29.847" y="2.02" transform="matrix(0.7071 0.7071 -0.7071 0.7071 31.4422 -12.9448)" fill="#8012DD" width="3" height="58.924"/>
</g>
<g>
	
		<rect x="34.097" y="6.269" transform="matrix(0.7071 0.7071 -0.7071 0.7071 35.6919 -14.705)" fill="#8012DD" width="3" height="58.925"/>
</g>
<g>
	
		<rect x="38.345" y="10.519" transform="matrix(0.7071 0.7071 -0.7071 0.7071 39.9413 -16.4644)" fill="#8012DD" width="3" height="58.925"/>
</g>
</svg>
