<?xml version="1.0" encoding="utf-8"?>
<!-- Generator: Adobe Illustrator 16.0.0, SVG Export Plug-In . SVG Version: 6.00 Build 0)  -->
<!DOCTYPE svg PUBLIC "-//W3C//DTD SVG 1.1//EN" "http://www.w3.org/Graphics/SVG/1.1/DTD/svg11.dtd">
<svg version="1.1" id="Layer_1" xmlns="http://www.w3.org/2000/svg" xmlns:xlink="http://www.w3.org/1999/xlink" x="0px" y="0px"
	 width="40px" height="40px" viewBox="0 0 40 40" enable-background="new 0 0 40 40" xml:space="preserve">
<path fill="#FFFFFF" d="M26.636,11.844V8.31c0-3.901-3.174-7.076-7.076-7.076c-3.901,0-7.076,3.174-7.076,7.076v3.535h-2.103v11.939
	h18.252V11.844H26.636z M20.091,18.396v2.479h-1.167v-2.479c-0.674-0.241-1.159-0.878-1.159-1.634c0-0.962,0.781-1.742,1.743-1.742
	c0.961,0,1.742,0.78,1.742,1.742C21.251,17.518,20.767,18.155,20.091,18.396z M24.172,11.844h-9.227V8.31
	c0-2.544,2.07-4.615,4.615-4.615c2.544,0,4.612,2.07,4.612,4.615V11.844z"/>
<g>
	<path fill="#FFFFFF" d="M12.661,31.646c-1.872-0.6-2.2-0.997-2.2-1.611c0-0.514,0.486-1.117,1.856-1.117
		c1.215,0,1.986,0.363,2.13,0.436l0.619,0.314l0.844-2.058l-0.407-0.195c-0.773-0.371-1.914-0.587-3.128-0.587
		c-2.756,0-4.757,1.417-4.757,3.365c0,1.576,1.24,2.713,3.788,3.479c1.721,0.529,2.057,1.007,2.057,1.652
		c0,0.851-0.773,1.339-2.124,1.339c-0.93,0-1.924-0.231-2.657-0.619l-0.636-0.337l-0.8,2.089l0.36,0.198
		c0.833,0.456,2.322,0.773,3.619,0.773c3.51,0,5.081-1.783,5.081-3.555C16.305,33.111,14.464,32.232,12.661,31.646z"/>
	<path fill="#FFFFFF" d="M22.108,31.646c-1.87-0.6-2.2-0.997-2.2-1.611c0-0.514,0.486-1.117,1.857-1.117
		c0.939,0,1.716,0.223,2.129,0.436l0.618,0.313l0.845-2.056l-0.407-0.195c-0.771-0.371-1.913-0.587-3.128-0.587
		c-2.756,0-4.757,1.417-4.757,3.365c0,1.576,1.241,2.713,3.787,3.479c1.722,0.529,2.061,1.007,2.061,1.652
		c0,0.851-0.776,1.339-2.125,1.339c-0.932,0-1.926-0.231-2.659-0.619l-0.637-0.337l-0.798,2.089l0.361,0.198
		c0.833,0.456,2.318,0.773,3.618,0.773c3.51,0,5.082-1.783,5.082-3.555C25.755,33.111,23.914,32.232,22.108,31.646z"/>
	<polygon fill="#FFFFFF" points="29.723,36.485 29.723,27.002 26.879,27.002 26.879,38.591 35.24,38.591 35.24,36.485 	"/>
</g>
<path fill="#FFFFFF" d="M32.816,3.494c-2.783,0-5.037,2.255-5.037,5.036c0,2.782,2.254,5.037,5.037,5.037
	c2.782,0,5.036-2.255,5.036-5.037C37.853,5.749,35.599,3.494,32.816,3.494z M32.326,10.806l-2.783-2.782l0.792-0.792l1.991,1.991
	l2.969-2.97l0.791,0.791L32.326,10.806z"/>
</svg>
