<?xml version="1.0" encoding="utf-8"?>
<!-- Generator: Adobe Illustrator 16.0.0, SVG Export Plug-In . SVG Version: 6.00 Build 0)  -->
<!DOCTYPE svg PUBLIC "-//W3C//DTD SVG 1.1//EN" "http://www.w3.org/Graphics/SVG/1.1/DTD/svg11.dtd">
<svg version="1.1" id="Layer_1" xmlns="http://www.w3.org/2000/svg" xmlns:xlink="http://www.w3.org/1999/xlink" x="0px" y="0px"
	 width="100px" height="30px" viewBox="0 0 100 30" enable-background="new 0 0 100 30" xml:space="preserve">
<g>
	<path fill="#FFFFFF" d="M96.068,17.459l0.929,5.416l-4.862-2.558l-4.864,2.558l0.93-5.416l-3.935-3.835l5.437-0.79l2.433-4.927
		l2.431,4.927l5.435,0.79V0H0v13.624l5.437-0.79l2.432-4.927l2.432,4.927l5.438,0.79l-3.935,3.835l0.929,5.416l-4.863-2.558
		l-4.863,2.558l0.929-5.416L0,13.624V30h100V13.627L96.068,17.459z M33.798,22.875l-4.863-2.558l-4.863,2.558l0.929-5.416
		l-3.935-3.835l5.437-0.79l2.432-4.927l2.432,4.927l5.438,0.79l-3.935,3.835L33.798,22.875z M54.864,22.875l-4.863-2.558
		l-4.863,2.558l0.929-5.416l-3.935-3.835l5.437-0.79l2.432-4.927l2.431,4.927l5.438,0.79l-3.935,3.835L54.864,22.875z
		 M75.931,22.875l-4.862-2.558l-4.864,2.558l0.93-5.416l-3.935-3.835l5.437-0.79l2.433-4.927l2.431,4.927l5.438,0.79l-3.935,3.835
		L75.931,22.875z"/>
	<polygon fill="#FFFFFF" points="100.003,13.624 100,13.624 100,13.627 	"/>
</g>
</svg>
