<?xml version="1.0" encoding="utf-8"?>
<!-- Generator: Adobe Illustrator 16.0.0, SVG Export Plug-In . SVG Version: 6.00 Build 0)  -->
<!DOCTYPE svg PUBLIC "-//W3C//DTD SVG 1.1//EN" "http://www.w3.org/Graphics/SVG/1.1/DTD/svg11.dtd">
<svg version="1.1" id="Layer_1" xmlns="http://www.w3.org/2000/svg" xmlns:xlink="http://www.w3.org/1999/xlink" x="0px" y="0px"
	 width="30px" height="30px" viewBox="0 0 30 30" enable-background="new 0 0 30 30" xml:space="preserve">
<g>
	<path fill="#B5B5B5" d="M10.397,27.169c-1.58,0-1.58-2.253-1.58-3.335v-0.766c-1.992-0.805-3.306-2.721-3.306-4.877V9.785
		c0-2.914,2.371-5.285,5.285-5.285h8.407c2.914,0,5.285,2.371,5.285,5.285v8.406c0,2.914-2.371,5.285-5.285,5.285h-2.077
		l-5.578,3.328C11.111,27.052,10.738,27.169,10.397,27.169z"/>
</g>
<g>
	<rect x="10.037" y="8.97" fill="#FFFFFF" width="9.927" height="1"/>
</g>
<g>
	<rect x="10.037" y="13.427" fill="#FFFFFF" width="9.927" height="1"/>
</g>
<g>
	<rect x="10.037" y="17.886" fill="#FFFFFF" width="9.927" height="1"/>
</g>
</svg>
